  0
SECTION
  2
HEADER
  9
$ACADVER
  1
AC1009
  9
$EXTMIN
 10
0.0
 20
0.0
 30
0.0
  9
$EXTMAX
 10
1000.0
 20
1000.0
 30
0.0
  9
$FILLMODE
 70
 0
  9
$SPLFRAME
 70
 1
  0
ENDSEC
  0
SECTION
  2
TABLES
  0
TABLE
  2
LAYER
 70
1
  0
LAYER
  2
0
 70
     0
 62
     7
  6
CONTINUOUS
  0
ENDTAB
  0
ENDSEC
  0
SECTION
  2
ENTITIES
  0
LINE
  8
0
 62
     0
 10
0.529167
 20
220.176
 30
0.0
 11
280.529
 21
220.176
 31
0.0
  0
LINE
  8
0
 62
     0
 10
280.529
 20
220.176
 30
0.0
 11
280.529
 21
0.176389
 31
0.0
  0
LINE
  8
0
 62
     0
 10
280.529
 20
0.176389
 30
0.0
 11
0.529167
 21
0.176389
 31
0.0
  0
LINE
  8
0
 62
     0
 10
0.529167
 20
0.176389
 30
0.0
 11
0.529167
 21
220.176
 31
0.0
  0
LINE
  8
0
 62
     0
 10
249.53
 20
107.177
 30
0.0
 11
248.824
 21
107.177
 31
0.0
  0
LINE
  8
0
 62
     0
 10
248.824
 20
107.177
 30
0.0
 11
246.707
 21
107.462
 31
0.0
  0
LINE
  8
0
 62
     0
 10
246.707
 20
107.462
 30
0.0
 11
244.08
 21
108.278
 31
0.0
  0
LINE
  8
0
 62
     0
 10
244.08
 20
108.278
 30
0.0
 11
241.701
 21
109.568
 31
0.0
  0
LINE
  8
0
 62
     0
 10
241.701
 20
109.568
 30
0.0
 11
239.629
 21
111.278
 31
0.0
  0
LINE
  8
0
 62
     0
 10
239.629
 20
111.278
 30
0.0
 11
237.92
 21
113.349
 31
0.0
  0
LINE
  8
0
 62
     0
 10
237.92
 20
113.349
 30
0.0
 11
236.629
 21
115.728
 31
0.0
  0
LINE
  8
0
 62
     0
 10
236.629
 20
115.728
 30
0.0
 11
235.813
 21
118.356
 31
0.0
  0
LINE
  8
0
 62
     0
 10
235.813
 20
118.356
 30
0.0
 11
235.529
 21
120.472
 31
0.0
  0
LINE
  8
0
 62
     0
 10
235.529
 20
120.472
 30
0.0
 11
235.529
 21
121.176
 31
0.0
  0
LINE
  8
0
 62
     0
 10
235.529
 20
121.176
 30
0.0
 11
235.529
 21
121.882
 31
0.0
  0
LINE
  8
0
 62
     0
 10
235.529
 20
121.882
 30
0.0
 11
235.813
 21
123.999
 31
0.0
  0
LINE
  8
0
 62
     0
 10
235.813
 20
123.999
 30
0.0
 11
236.629
 21
126.626
 31
0.0
  0
LINE
  8
0
 62
     0
 10
236.629
 20
126.626
 30
0.0
 11
237.92
 21
129.005
 31
0.0
  0
LINE
  8
0
 62
     0
 10
237.92
 20
129.005
 30
0.0
 11
239.629
 21
131.076
 31
0.0
  0
LINE
  8
0
 62
     0
 10
239.629
 20
131.076
 30
0.0
 11
241.701
 21
132.786
 31
0.0
  0
LINE
  8
0
 62
     0
 10
241.701
 20
132.786
 30
0.0
 11
244.08
 21
134.076
 31
0.0
  0
LINE
  8
0
 62
     0
 10
244.08
 20
134.076
 30
0.0
 11
246.707
 21
134.892
 31
0.0
  0
LINE
  8
0
 62
     0
 10
246.707
 20
134.892
 30
0.0
 11
248.824
 21
135.176
 31
0.0
  0
LINE
  8
0
 62
     0
 10
248.824
 20
135.176
 30
0.0
 11
249.53
 21
135.176
 31
0.0
  0
LINE
  8
0
 62
     0
 10
249.53
 20
135.176
 30
0.0
 11
250.234
 21
135.176
 31
0.0
  0
LINE
  8
0
 62
     0
 10
250.234
 20
135.176
 30
0.0
 11
252.35
 21
134.892
 31
0.0
  0
LINE
  8
0
 62
     0
 10
252.35
 20
134.892
 30
0.0
 11
254.978
 21
134.076
 31
0.0
  0
LINE
  8
0
 62
     0
 10
254.978
 20
134.076
 30
0.0
 11
257.357
 21
132.786
 31
0.0
  0
LINE
  8
0
 62
     0
 10
257.357
 20
132.786
 30
0.0
 11
259.428
 21
131.076
 31
0.0
  0
LINE
  8
0
 62
     0
 10
259.428
 20
131.076
 30
0.0
 11
261.138
 21
129.005
 31
0.0
  0
LINE
  8
0
 62
     0
 10
261.138
 20
129.005
 30
0.0
 11
262.428
 21
126.626
 31
0.0
  0
LINE
  8
0
 62
     0
 10
262.428
 20
126.626
 30
0.0
 11
263.244
 21
123.999
 31
0.0
  0
LINE
  8
0
 62
     0
 10
263.244
 20
123.999
 30
0.0
 11
263.529
 21
121.882
 31
0.0
  0
LINE
  8
0
 62
     0
 10
263.529
 20
121.882
 30
0.0
 11
263.529
 21
121.176
 31
0.0
  0
LINE
  8
0
 62
     0
 10
263.529
 20
121.176
 30
0.0
 11
263.529
 21
120.472
 31
0.0
  0
LINE
  8
0
 62
     0
 10
263.529
 20
120.472
 30
0.0
 11
263.244
 21
118.356
 31
0.0
  0
LINE
  8
0
 62
     0
 10
263.244
 20
118.356
 30
0.0
 11
262.428
 21
115.728
 31
0.0
  0
LINE
  8
0
 62
     0
 10
262.428
 20
115.728
 30
0.0
 11
261.138
 21
113.349
 31
0.0
  0
LINE
  8
0
 62
     0
 10
261.138
 20
113.349
 30
0.0
 11
259.428
 21
111.278
 31
0.0
  0
LINE
  8
0
 62
     0
 10
259.428
 20
111.278
 30
0.0
 11
257.357
 21
109.568
 31
0.0
  0
LINE
  8
0
 62
     0
 10
257.357
 20
109.568
 30
0.0
 11
254.978
 21
108.278
 31
0.0
  0
LINE
  8
0
 62
     0
 10
254.978
 20
108.278
 30
0.0
 11
252.35
 21
107.462
 31
0.0
  0
LINE
  8
0
 62
     0
 10
252.35
 20
107.462
 30
0.0
 11
250.234
 21
107.177
 31
0.0
  0
LINE
  8
0
 62
     0
 10
250.234
 20
107.177
 30
0.0
 11
249.53
 21
107.177
 31
0.0
  0
LINE
  8
0
 62
     0
 10
249.53
 20
72.1762
 30
0.0
 11
248.824
 21
72.1762
 31
0.0
  0
LINE
  8
0
 62
     0
 10
248.824
 20
72.1762
 30
0.0
 11
246.707
 21
72.4613
 31
0.0
  0
LINE
  8
0
 62
     0
 10
246.707
 20
72.4613
 30
0.0
 11
244.08
 21
73.2772
 31
0.0
  0
LINE
  8
0
 62
     0
 10
244.08
 20
73.2772
 30
0.0
 11
241.701
 21
74.5684
 31
0.0
  0
LINE
  8
0
 62
     0
 10
241.701
 20
74.5684
 30
0.0
 11
239.629
 21
76.2773
 31
0.0
  0
LINE
  8
0
 62
     0
 10
239.629
 20
76.2773
 30
0.0
 11
237.92
 21
78.3498
 31
0.0
  0
LINE
  8
0
 62
     0
 10
237.92
 20
78.3498
 30
0.0
 11
236.629
 21
80.7283
 31
0.0
  0
LINE
  8
0
 62
     0
 10
236.629
 20
80.7283
 30
0.0
 11
235.813
 21
83.3561
 31
0.0
  0
LINE
  8
0
 62
     0
 10
235.813
 20
83.3561
 30
0.0
 11
235.529
 21
85.4728
 31
0.0
  0
LINE
  8
0
 62
     0
 10
235.529
 20
85.4728
 30
0.0
 11
235.529
 21
86.1769
 31
0.0
  0
LINE
  8
0
 62
     0
 10
235.529
 20
86.1769
 30
0.0
 11
235.529
 21
86.8825
 31
0.0
  0
LINE
  8
0
 62
     0
 10
235.529
 20
86.8825
 30
0.0
 11
235.813
 21
88.9991
 31
0.0
  0
LINE
  8
0
 62
     0
 10
235.813
 20
88.9991
 30
0.0
 11
236.629
 21
91.627
 31
0.0
  0
LINE
  8
0
 62
     0
 10
236.629
 20
91.627
 30
0.0
 11
237.92
 21
94.0043
 31
0.0
  0
LINE
  8
0
 62
     0
 10
237.92
 20
94.0043
 30
0.0
 11
239.629
 21
96.0769
 31
0.0
  0
LINE
  8
0
 62
     0
 10
239.629
 20
96.0769
 30
0.0
 11
241.701
 21
97.7858
 31
0.0
  0
LINE
  8
0
 62
     0
 10
241.701
 20
97.7858
 30
0.0
 11
244.08
 21
99.0769
 31
0.0
  0
LINE
  8
0
 62
     0
 10
244.08
 20
99.0769
 30
0.0
 11
246.707
 21
99.8926
 31
0.0
  0
LINE
  8
0
 62
     0
 10
246.707
 20
99.8926
 30
0.0
 11
248.824
 21
100.177
 31
0.0
  0
LINE
  8
0
 62
     0
 10
248.824
 20
100.177
 30
0.0
 11
249.53
 21
100.177
 31
0.0
  0
LINE
  8
0
 62
     0
 10
249.53
 20
100.177
 30
0.0
 11
250.234
 21
100.177
 31
0.0
  0
LINE
  8
0
 62
     0
 10
250.234
 20
100.177
 30
0.0
 11
252.35
 21
99.8926
 31
0.0
  0
LINE
  8
0
 62
     0
 10
252.35
 20
99.8926
 30
0.0
 11
254.978
 21
99.0769
 31
0.0
  0
LINE
  8
0
 62
     0
 10
254.978
 20
99.0769
 30
0.0
 11
257.357
 21
97.7858
 31
0.0
  0
LINE
  8
0
 62
     0
 10
257.357
 20
97.7858
 30
0.0
 11
259.428
 21
96.0769
 31
0.0
  0
LINE
  8
0
 62
     0
 10
259.428
 20
96.0769
 30
0.0
 11
261.138
 21
94.0043
 31
0.0
  0
LINE
  8
0
 62
     0
 10
261.138
 20
94.0043
 30
0.0
 11
262.428
 21
91.627
 31
0.0
  0
LINE
  8
0
 62
     0
 10
262.428
 20
91.627
 30
0.0
 11
263.244
 21
88.9991
 31
0.0
  0
LINE
  8
0
 62
     0
 10
263.244
 20
88.9991
 30
0.0
 11
263.529
 21
86.8825
 31
0.0
  0
LINE
  8
0
 62
     0
 10
263.529
 20
86.8825
 30
0.0
 11
263.529
 21
86.1769
 31
0.0
  0
LINE
  8
0
 62
     0
 10
263.529
 20
86.1769
 30
0.0
 11
263.529
 21
85.4728
 31
0.0
  0
LINE
  8
0
 62
     0
 10
263.529
 20
85.4728
 30
0.0
 11
263.244
 21
83.3561
 31
0.0
  0
LINE
  8
0
 62
     0
 10
263.244
 20
83.3561
 30
0.0
 11
262.428
 21
80.7283
 31
0.0
  0
LINE
  8
0
 62
     0
 10
262.428
 20
80.7283
 30
0.0
 11
261.138
 21
78.3498
 31
0.0
  0
LINE
  8
0
 62
     0
 10
261.138
 20
78.3498
 30
0.0
 11
259.428
 21
76.2773
 31
0.0
  0
LINE
  8
0
 62
     0
 10
259.428
 20
76.2773
 30
0.0
 11
257.357
 21
74.5684
 31
0.0
  0
LINE
  8
0
 62
     0
 10
257.357
 20
74.5684
 30
0.0
 11
254.978
 21
73.2772
 31
0.0
  0
LINE
  8
0
 62
     0
 10
254.978
 20
73.2772
 30
0.0
 11
252.35
 21
72.4613
 31
0.0
  0
LINE
  8
0
 62
     0
 10
252.35
 20
72.4613
 30
0.0
 11
250.234
 21
72.1762
 31
0.0
  0
LINE
  8
0
 62
     0
 10
250.234
 20
72.1762
 30
0.0
 11
249.53
 21
72.1762
 31
0.0
  0
LINE
  8
0
 62
     0
 10
214.529
 20
117.176
 30
0.0
 11
213.823
 21
117.176
 31
0.0
  0
LINE
  8
0
 62
     0
 10
213.823
 20
117.176
 30
0.0
 11
211.707
 21
117.461
 31
0.0
  0
LINE
  8
0
 62
     0
 10
211.707
 20
117.461
 30
0.0
 11
209.079
 21
118.277
 31
0.0
  0
LINE
  8
0
 62
     0
 10
209.079
 20
118.277
 30
0.0
 11
206.7
 21
119.568
 31
0.0
  0
LINE
  8
0
 62
     0
 10
206.7
 20
119.568
 30
0.0
 11
204.629
 21
121.277
 31
0.0
  0
LINE
  8
0
 62
     0
 10
204.629
 20
121.277
 30
0.0
 11
202.919
 21
123.349
 31
0.0
  0
LINE
  8
0
 62
     0
 10
202.919
 20
123.349
 30
0.0
 11
201.629
 21
125.728
 31
0.0
  0
LINE
  8
0
 62
     0
 10
201.629
 20
125.728
 30
0.0
 11
200.813
 21
128.356
 31
0.0
  0
LINE
  8
0
 62
     0
 10
200.813
 20
128.356
 30
0.0
 11
200.529
 21
130.473
 31
0.0
  0
LINE
  8
0
 62
     0
 10
200.529
 20
130.473
 30
0.0
 11
200.529
 21
131.177
 31
0.0
  0
LINE
  8
0
 62
     0
 10
200.529
 20
131.177
 30
0.0
 11
200.529
 21
131.882
 31
0.0
  0
LINE
  8
0
 62
     0
 10
200.529
 20
131.882
 30
0.0
 11
200.813
 21
133.999
 31
0.0
  0
LINE
  8
0
 62
     0
 10
200.813
 20
133.999
 30
0.0
 11
201.629
 21
136.627
 31
0.0
  0
LINE
  8
0
 62
     0
 10
201.629
 20
136.627
 30
0.0
 11
202.919
 21
139.005
 31
0.0
  0
LINE
  8
0
 62
     0
 10
202.919
 20
139.005
 30
0.0
 11
204.629
 21
141.077
 31
0.0
  0
LINE
  8
0
 62
     0
 10
204.629
 20
141.077
 30
0.0
 11
206.7
 21
142.787
 31
0.0
  0
LINE
  8
0
 62
     0
 10
206.7
 20
142.787
 30
0.0
 11
209.079
 21
144.077
 31
0.0
  0
LINE
  8
0
 62
     0
 10
209.079
 20
144.077
 30
0.0
 11
211.707
 21
144.893
 31
0.0
  0
LINE
  8
0
 62
     0
 10
211.707
 20
144.893
 30
0.0
 11
213.823
 21
145.176
 31
0.0
  0
LINE
  8
0
 62
     0
 10
213.823
 20
145.176
 30
0.0
 11
214.529
 21
145.176
 31
0.0
  0
LINE
  8
0
 62
     0
 10
214.529
 20
145.176
 30
0.0
 11
215.233
 21
145.176
 31
0.0
  0
LINE
  8
0
 62
     0
 10
215.233
 20
145.176
 30
0.0
 11
217.35
 21
144.893
 31
0.0
  0
LINE
  8
0
 62
     0
 10
217.35
 20
144.893
 30
0.0
 11
219.978
 21
144.077
 31
0.0
  0
LINE
  8
0
 62
     0
 10
219.978
 20
144.077
 30
0.0
 11
222.356
 21
142.787
 31
0.0
  0
LINE
  8
0
 62
     0
 10
222.356
 20
142.787
 30
0.0
 11
224.429
 21
141.077
 31
0.0
  0
LINE
  8
0
 62
     0
 10
224.429
 20
141.077
 30
0.0
 11
226.138
 21
139.005
 31
0.0
  0
LINE
  8
0
 62
     0
 10
226.138
 20
139.005
 30
0.0
 11
227.429
 21
136.627
 31
0.0
  0
LINE
  8
0
 62
     0
 10
227.429
 20
136.627
 30
0.0
 11
228.244
 21
133.999
 31
0.0
  0
LINE
  8
0
 62
     0
 10
228.244
 20
133.999
 30
0.0
 11
228.53
 21
131.882
 31
0.0
  0
LINE
  8
0
 62
     0
 10
228.53
 20
131.882
 30
0.0
 11
228.53
 21
131.177
 31
0.0
  0
LINE
  8
0
 62
     0
 10
228.53
 20
131.177
 30
0.0
 11
228.53
 21
130.473
 31
0.0
  0
LINE
  8
0
 62
     0
 10
228.53
 20
130.473
 30
0.0
 11
228.244
 21
128.356
 31
0.0
  0
LINE
  8
0
 62
     0
 10
228.244
 20
128.356
 30
0.0
 11
227.429
 21
125.728
 31
0.0
  0
LINE
  8
0
 62
     0
 10
227.429
 20
125.728
 30
0.0
 11
226.138
 21
123.349
 31
0.0
  0
LINE
  8
0
 62
     0
 10
226.138
 20
123.349
 30
0.0
 11
224.429
 21
121.277
 31
0.0
  0
LINE
  8
0
 62
     0
 10
224.429
 20
121.277
 30
0.0
 11
222.356
 21
119.568
 31
0.0
  0
LINE
  8
0
 62
     0
 10
222.356
 20
119.568
 30
0.0
 11
219.978
 21
118.277
 31
0.0
  0
LINE
  8
0
 62
     0
 10
219.978
 20
118.277
 30
0.0
 11
217.35
 21
117.461
 31
0.0
  0
LINE
  8
0
 62
     0
 10
217.35
 20
117.461
 30
0.0
 11
215.233
 21
117.176
 31
0.0
  0
LINE
  8
0
 62
     0
 10
215.233
 20
117.176
 30
0.0
 11
214.529
 21
117.176
 31
0.0
  0
LINE
  8
0
 62
     0
 10
214.529
 20
82.1764
 30
0.0
 11
213.823
 21
82.1764
 31
0.0
  0
LINE
  8
0
 62
     0
 10
213.823
 20
82.1764
 30
0.0
 11
211.707
 21
82.4618
 31
0.0
  0
LINE
  8
0
 62
     0
 10
211.707
 20
82.4618
 30
0.0
 11
209.079
 21
83.2774
 31
0.0
  0
LINE
  8
0
 62
     0
 10
209.079
 20
83.2774
 30
0.0
 11
206.7
 21
84.5675
 31
0.0
  0
LINE
  8
0
 62
     0
 10
206.7
 20
84.5675
 30
0.0
 11
204.629
 21
86.2774
 31
0.0
  0
LINE
  8
0
 62
     0
 10
204.629
 20
86.2774
 30
0.0
 11
202.919
 21
88.349
 31
0.0
  0
LINE
  8
0
 62
     0
 10
202.919
 20
88.349
 30
0.0
 11
201.629
 21
90.7274
 31
0.0
  0
LINE
  8
0
 62
     0
 10
201.629
 20
90.7274
 30
0.0
 11
200.813
 21
93.3552
 31
0.0
  0
LINE
  8
0
 62
     0
 10
200.813
 20
93.3552
 30
0.0
 11
200.529
 21
95.4719
 31
0.0
  0
LINE
  8
0
 62
     0
 10
200.529
 20
95.4719
 30
0.0
 11
200.529
 21
96.176
 31
0.0
  0
LINE
  8
0
 62
     0
 10
200.529
 20
96.176
 30
0.0
 11
200.529
 21
96.8816
 31
0.0
  0
LINE
  8
0
 62
     0
 10
200.529
 20
96.8816
 30
0.0
 11
200.813
 21
98.9983
 31
0.0
  0
LINE
  8
0
 62
     0
 10
200.813
 20
98.9983
 30
0.0
 11
201.629
 21
101.626
 31
0.0
  0
LINE
  8
0
 62
     0
 10
201.629
 20
101.626
 30
0.0
 11
202.919
 21
104.005
 31
0.0
  0
LINE
  8
0
 62
     0
 10
202.919
 20
104.005
 30
0.0
 11
204.629
 21
106.077
 31
0.0
  0
LINE
  8
0
 62
     0
 10
204.629
 20
106.077
 30
0.0
 11
206.7
 21
107.786
 31
0.0
  0
LINE
  8
0
 62
     0
 10
206.7
 20
107.786
 30
0.0
 11
209.079
 21
109.077
 31
0.0
  0
LINE
  8
0
 62
     0
 10
209.079
 20
109.077
 30
0.0
 11
211.707
 21
109.893
 31
0.0
  0
LINE
  8
0
 62
     0
 10
211.707
 20
109.893
 30
0.0
 11
213.823
 21
110.177
 31
0.0
  0
LINE
  8
0
 62
     0
 10
213.823
 20
110.177
 30
0.0
 11
214.529
 21
110.177
 31
0.0
  0
LINE
  8
0
 62
     0
 10
214.529
 20
110.177
 30
0.0
 11
215.233
 21
110.177
 31
0.0
  0
LINE
  8
0
 62
     0
 10
215.233
 20
110.177
 30
0.0
 11
217.35
 21
109.893
 31
0.0
  0
LINE
  8
0
 62
     0
 10
217.35
 20
109.893
 30
0.0
 11
219.978
 21
109.077
 31
0.0
  0
LINE
  8
0
 62
     0
 10
219.978
 20
109.077
 30
0.0
 11
222.356
 21
107.786
 31
0.0
  0
LINE
  8
0
 62
     0
 10
222.356
 20
107.786
 30
0.0
 11
224.429
 21
106.077
 31
0.0
  0
LINE
  8
0
 62
     0
 10
224.429
 20
106.077
 30
0.0
 11
226.138
 21
104.005
 31
0.0
  0
LINE
  8
0
 62
     0
 10
226.138
 20
104.005
 30
0.0
 11
227.429
 21
101.626
 31
0.0
  0
LINE
  8
0
 62
     0
 10
227.429
 20
101.626
 30
0.0
 11
228.244
 21
98.9983
 31
0.0
  0
LINE
  8
0
 62
     0
 10
228.244
 20
98.9983
 30
0.0
 11
228.53
 21
96.8816
 31
0.0
  0
LINE
  8
0
 62
     0
 10
228.53
 20
96.8816
 30
0.0
 11
228.53
 21
96.176
 31
0.0
  0
LINE
  8
0
 62
     0
 10
228.53
 20
96.176
 30
0.0
 11
228.53
 21
95.4719
 31
0.0
  0
LINE
  8
0
 62
     0
 10
228.53
 20
95.4719
 30
0.0
 11
228.244
 21
93.3552
 31
0.0
  0
LINE
  8
0
 62
     0
 10
228.244
 20
93.3552
 30
0.0
 11
227.429
 21
90.7274
 31
0.0
  0
LINE
  8
0
 62
     0
 10
227.429
 20
90.7274
 30
0.0
 11
226.138
 21
88.349
 31
0.0
  0
LINE
  8
0
 62
     0
 10
226.138
 20
88.349
 30
0.0
 11
224.429
 21
86.2774
 31
0.0
  0
LINE
  8
0
 62
     0
 10
224.429
 20
86.2774
 30
0.0
 11
222.356
 21
84.5675
 31
0.0
  0
LINE
  8
0
 62
     0
 10
222.356
 20
84.5675
 30
0.0
 11
219.978
 21
83.2774
 31
0.0
  0
LINE
  8
0
 62
     0
 10
219.978
 20
83.2774
 30
0.0
 11
217.35
 21
82.4618
 31
0.0
  0
LINE
  8
0
 62
     0
 10
217.35
 20
82.4618
 30
0.0
 11
215.233
 21
82.1764
 31
0.0
  0
LINE
  8
0
 62
     0
 10
215.233
 20
82.1764
 30
0.0
 11
214.529
 21
82.1764
 31
0.0
  0
LINE
  8
0
 62
     0
 10
179.529
 20
117.176
 30
0.0
 11
178.824
 21
117.176
 31
0.0
  0
LINE
  8
0
 62
     0
 10
178.824
 20
117.176
 30
0.0
 11
176.707
 21
117.461
 31
0.0
  0
LINE
  8
0
 62
     0
 10
176.707
 20
117.461
 30
0.0
 11
174.079
 21
118.277
 31
0.0
  0
LINE
  8
0
 62
     0
 10
174.079
 20
118.277
 30
0.0
 11
171.701
 21
119.568
 31
0.0
  0
LINE
  8
0
 62
     0
 10
171.701
 20
119.568
 30
0.0
 11
169.628
 21
121.277
 31
0.0
  0
LINE
  8
0
 62
     0
 10
169.628
 20
121.277
 30
0.0
 11
167.919
 21
123.349
 31
0.0
  0
LINE
  8
0
 62
     0
 10
167.919
 20
123.349
 30
0.0
 11
166.628
 21
125.728
 31
0.0
  0
LINE
  8
0
 62
     0
 10
166.628
 20
125.728
 30
0.0
 11
165.813
 21
128.356
 31
0.0
  0
LINE
  8
0
 62
     0
 10
165.813
 20
128.356
 30
0.0
 11
165.529
 21
130.473
 31
0.0
  0
LINE
  8
0
 62
     0
 10
165.529
 20
130.473
 30
0.0
 11
165.529
 21
131.177
 31
0.0
  0
LINE
  8
0
 62
     0
 10
165.529
 20
131.177
 30
0.0
 11
165.529
 21
131.882
 31
0.0
  0
LINE
  8
0
 62
     0
 10
165.529
 20
131.882
 30
0.0
 11
165.813
 21
133.999
 31
0.0
  0
LINE
  8
0
 62
     0
 10
165.813
 20
133.999
 30
0.0
 11
166.628
 21
136.627
 31
0.0
  0
LINE
  8
0
 62
     0
 10
166.628
 20
136.627
 30
0.0
 11
167.919
 21
139.005
 31
0.0
  0
LINE
  8
0
 62
     0
 10
167.919
 20
139.005
 30
0.0
 11
169.628
 21
141.077
 31
0.0
  0
LINE
  8
0
 62
     0
 10
169.628
 20
141.077
 30
0.0
 11
171.701
 21
142.787
 31
0.0
  0
LINE
  8
0
 62
     0
 10
171.701
 20
142.787
 30
0.0
 11
174.079
 21
144.077
 31
0.0
  0
LINE
  8
0
 62
     0
 10
174.079
 20
144.077
 30
0.0
 11
176.707
 21
144.893
 31
0.0
  0
LINE
  8
0
 62
     0
 10
176.707
 20
144.893
 30
0.0
 11
178.824
 21
145.176
 31
0.0
  0
LINE
  8
0
 62
     0
 10
178.824
 20
145.176
 30
0.0
 11
179.529
 21
145.176
 31
0.0
  0
LINE
  8
0
 62
     0
 10
179.529
 20
145.176
 30
0.0
 11
180.233
 21
145.176
 31
0.0
  0
LINE
  8
0
 62
     0
 10
180.233
 20
145.176
 30
0.0
 11
182.35
 21
144.893
 31
0.0
  0
LINE
  8
0
 62
     0
 10
182.35
 20
144.893
 30
0.0
 11
184.978
 21
144.077
 31
0.0
  0
LINE
  8
0
 62
     0
 10
184.978
 20
144.077
 30
0.0
 11
187.357
 21
142.787
 31
0.0
  0
LINE
  8
0
 62
     0
 10
187.357
 20
142.787
 30
0.0
 11
189.428
 21
141.077
 31
0.0
  0
LINE
  8
0
 62
     0
 10
189.428
 20
141.077
 30
0.0
 11
191.138
 21
139.005
 31
0.0
  0
LINE
  8
0
 62
     0
 10
191.138
 20
139.005
 30
0.0
 11
192.428
 21
136.627
 31
0.0
  0
LINE
  8
0
 62
     0
 10
192.428
 20
136.627
 30
0.0
 11
193.244
 21
133.999
 31
0.0
  0
LINE
  8
0
 62
     0
 10
193.244
 20
133.999
 30
0.0
 11
193.529
 21
131.882
 31
0.0
  0
LINE
  8
0
 62
     0
 10
193.529
 20
131.882
 30
0.0
 11
193.529
 21
131.177
 31
0.0
  0
LINE
  8
0
 62
     0
 10
193.529
 20
131.177
 30
0.0
 11
193.529
 21
130.473
 31
0.0
  0
LINE
  8
0
 62
     0
 10
193.529
 20
130.473
 30
0.0
 11
193.244
 21
128.356
 31
0.0
  0
LINE
  8
0
 62
     0
 10
193.244
 20
128.356
 30
0.0
 11
192.428
 21
125.728
 31
0.0
  0
LINE
  8
0
 62
     0
 10
192.428
 20
125.728
 30
0.0
 11
191.138
 21
123.349
 31
0.0
  0
LINE
  8
0
 62
     0
 10
191.138
 20
123.349
 30
0.0
 11
189.428
 21
121.277
 31
0.0
  0
LINE
  8
0
 62
     0
 10
189.428
 20
121.277
 30
0.0
 11
187.357
 21
119.568
 31
0.0
  0
LINE
  8
0
 62
     0
 10
187.357
 20
119.568
 30
0.0
 11
184.978
 21
118.277
 31
0.0
  0
LINE
  8
0
 62
     0
 10
184.978
 20
118.277
 30
0.0
 11
182.35
 21
117.461
 31
0.0
  0
LINE
  8
0
 62
     0
 10
182.35
 20
117.461
 30
0.0
 11
180.233
 21
117.176
 31
0.0
  0
LINE
  8
0
 62
     0
 10
180.233
 20
117.176
 30
0.0
 11
179.529
 21
117.176
 31
0.0
  0
LINE
  8
0
 62
     0
 10
179.529
 20
82.1764
 30
0.0
 11
178.824
 21
82.1764
 31
0.0
  0
LINE
  8
0
 62
     0
 10
178.824
 20
82.1764
 30
0.0
 11
176.707
 21
82.4618
 31
0.0
  0
LINE
  8
0
 62
     0
 10
176.707
 20
82.4618
 30
0.0
 11
174.079
 21
83.2774
 31
0.0
  0
LINE
  8
0
 62
     0
 10
174.079
 20
83.2774
 30
0.0
 11
171.701
 21
84.5675
 31
0.0
  0
LINE
  8
0
 62
     0
 10
171.701
 20
84.5675
 30
0.0
 11
169.628
 21
86.2774
 31
0.0
  0
LINE
  8
0
 62
     0
 10
169.628
 20
86.2774
 30
0.0
 11
167.919
 21
88.349
 31
0.0
  0
LINE
  8
0
 62
     0
 10
167.919
 20
88.349
 30
0.0
 11
166.628
 21
90.7274
 31
0.0
  0
LINE
  8
0
 62
     0
 10
166.628
 20
90.7274
 30
0.0
 11
165.813
 21
93.3552
 31
0.0
  0
LINE
  8
0
 62
     0
 10
165.813
 20
93.3552
 30
0.0
 11
165.529
 21
95.4719
 31
0.0
  0
LINE
  8
0
 62
     0
 10
165.529
 20
95.4719
 30
0.0
 11
165.529
 21
96.176
 31
0.0
  0
LINE
  8
0
 62
     0
 10
165.529
 20
96.176
 30
0.0
 11
165.529
 21
96.8816
 31
0.0
  0
LINE
  8
0
 62
     0
 10
165.529
 20
96.8816
 30
0.0
 11
165.813
 21
98.9983
 31
0.0
  0
LINE
  8
0
 62
     0
 10
165.813
 20
98.9983
 30
0.0
 11
166.628
 21
101.626
 31
0.0
  0
LINE
  8
0
 62
     0
 10
166.628
 20
101.626
 30
0.0
 11
167.919
 21
104.005
 31
0.0
  0
LINE
  8
0
 62
     0
 10
167.919
 20
104.005
 30
0.0
 11
169.628
 21
106.077
 31
0.0
  0
LINE
  8
0
 62
     0
 10
169.628
 20
106.077
 30
0.0
 11
171.701
 21
107.786
 31
0.0
  0
LINE
  8
0
 62
     0
 10
171.701
 20
107.786
 30
0.0
 11
174.079
 21
109.077
 31
0.0
  0
LINE
  8
0
 62
     0
 10
174.079
 20
109.077
 30
0.0
 11
176.707
 21
109.893
 31
0.0
  0
LINE
  8
0
 62
     0
 10
176.707
 20
109.893
 30
0.0
 11
178.824
 21
110.177
 31
0.0
  0
LINE
  8
0
 62
     0
 10
178.824
 20
110.177
 30
0.0
 11
179.529
 21
110.177
 31
0.0
  0
LINE
  8
0
 62
     0
 10
179.529
 20
110.177
 30
0.0
 11
180.233
 21
110.177
 31
0.0
  0
LINE
  8
0
 62
     0
 10
180.233
 20
110.177
 30
0.0
 11
182.35
 21
109.893
 31
0.0
  0
LINE
  8
0
 62
     0
 10
182.35
 20
109.893
 30
0.0
 11
184.978
 21
109.077
 31
0.0
  0
LINE
  8
0
 62
     0
 10
184.978
 20
109.077
 30
0.0
 11
187.357
 21
107.786
 31
0.0
  0
LINE
  8
0
 62
     0
 10
187.357
 20
107.786
 30
0.0
 11
189.428
 21
106.077
 31
0.0
  0
LINE
  8
0
 62
     0
 10
189.428
 20
106.077
 30
0.0
 11
191.138
 21
104.005
 31
0.0
  0
LINE
  8
0
 62
     0
 10
191.138
 20
104.005
 30
0.0
 11
192.428
 21
101.626
 31
0.0
  0
LINE
  8
0
 62
     0
 10
192.428
 20
101.626
 30
0.0
 11
193.244
 21
98.9983
 31
0.0
  0
LINE
  8
0
 62
     0
 10
193.244
 20
98.9983
 30
0.0
 11
193.529
 21
96.8816
 31
0.0
  0
LINE
  8
0
 62
     0
 10
193.529
 20
96.8816
 30
0.0
 11
193.529
 21
96.176
 31
0.0
  0
LINE
  8
0
 62
     0
 10
193.529
 20
96.176
 30
0.0
 11
193.529
 21
95.4719
 31
0.0
  0
LINE
  8
0
 62
     0
 10
193.529
 20
95.4719
 30
0.0
 11
193.244
 21
93.3552
 31
0.0
  0
LINE
  8
0
 62
     0
 10
193.244
 20
93.3552
 30
0.0
 11
192.428
 21
90.7274
 31
0.0
  0
LINE
  8
0
 62
     0
 10
192.428
 20
90.7274
 30
0.0
 11
191.138
 21
88.349
 31
0.0
  0
LINE
  8
0
 62
     0
 10
191.138
 20
88.349
 30
0.0
 11
189.428
 21
86.2774
 31
0.0
  0
LINE
  8
0
 62
     0
 10
189.428
 20
86.2774
 30
0.0
 11
187.357
 21
84.5675
 31
0.0
  0
LINE
  8
0
 62
     0
 10
187.357
 20
84.5675
 30
0.0
 11
184.978
 21
83.2774
 31
0.0
  0
LINE
  8
0
 62
     0
 10
184.978
 20
83.2774
 30
0.0
 11
182.35
 21
82.4618
 31
0.0
  0
LINE
  8
0
 62
     0
 10
182.35
 20
82.4618
 30
0.0
 11
180.233
 21
82.1764
 31
0.0
  0
LINE
  8
0
 62
     0
 10
180.233
 20
82.1764
 30
0.0
 11
179.529
 21
82.1764
 31
0.0
  0
LINE
  8
0
 62
     0
 10
144.529
 20
97.1765
 30
0.0
 11
143.823
 21
97.1765
 31
0.0
  0
LINE
  8
0
 62
     0
 10
143.823
 20
97.1765
 30
0.0
 11
141.707
 21
97.4619
 31
0.0
  0
LINE
  8
0
 62
     0
 10
141.707
 20
97.4619
 30
0.0
 11
139.078
 21
98.2775
 31
0.0
  0
LINE
  8
0
 62
     0
 10
139.078
 20
98.2775
 30
0.0
 11
136.701
 21
99.5673
 31
0.0
  0
LINE
  8
0
 62
     0
 10
136.701
 20
99.5673
 30
0.0
 11
134.629
 21
101.278
 31
0.0
  0
LINE
  8
0
 62
     0
 10
134.629
 20
101.278
 30
0.0
 11
132.92
 21
103.349
 31
0.0
  0
LINE
  8
0
 62
     0
 10
132.92
 20
103.349
 30
0.0
 11
131.629
 21
105.727
 31
0.0
  0
LINE
  8
0
 62
     0
 10
131.629
 20
105.727
 30
0.0
 11
130.813
 21
108.355
 31
0.0
  0
LINE
  8
0
 62
     0
 10
130.813
 20
108.355
 30
0.0
 11
130.529
 21
110.472
 31
0.0
  0
LINE
  8
0
 62
     0
 10
130.529
 20
110.472
 30
0.0
 11
130.529
 21
111.176
 31
0.0
  0
LINE
  8
0
 62
     0
 10
130.529
 20
111.176
 30
0.0
 11
130.529
 21
111.882
 31
0.0
  0
LINE
  8
0
 62
     0
 10
130.529
 20
111.882
 30
0.0
 11
130.813
 21
113.998
 31
0.0
  0
LINE
  8
0
 62
     0
 10
130.813
 20
113.998
 30
0.0
 11
131.629
 21
116.626
 31
0.0
  0
LINE
  8
0
 62
     0
 10
131.629
 20
116.626
 30
0.0
 11
132.92
 21
119.005
 31
0.0
  0
LINE
  8
0
 62
     0
 10
132.92
 20
119.005
 30
0.0
 11
134.629
 21
121.077
 31
0.0
  0
LINE
  8
0
 62
     0
 10
134.629
 20
121.077
 30
0.0
 11
136.701
 21
122.786
 31
0.0
  0
LINE
  8
0
 62
     0
 10
136.701
 20
122.786
 30
0.0
 11
139.078
 21
124.077
 31
0.0
  0
LINE
  8
0
 62
     0
 10
139.078
 20
124.077
 30
0.0
 11
141.707
 21
124.893
 31
0.0
  0
LINE
  8
0
 62
     0
 10
141.707
 20
124.893
 30
0.0
 11
143.823
 21
125.177
 31
0.0
  0
LINE
  8
0
 62
     0
 10
143.823
 20
125.177
 30
0.0
 11
144.529
 21
125.177
 31
0.0
  0
LINE
  8
0
 62
     0
 10
144.529
 20
125.177
 30
0.0
 11
145.233
 21
125.177
 31
0.0
  0
LINE
  8
0
 62
     0
 10
145.233
 20
125.177
 30
0.0
 11
147.35
 21
124.893
 31
0.0
  0
LINE
  8
0
 62
     0
 10
147.35
 20
124.893
 30
0.0
 11
149.977
 21
124.077
 31
0.0
  0
LINE
  8
0
 62
     0
 10
149.977
 20
124.077
 30
0.0
 11
152.356
 21
122.786
 31
0.0
  0
LINE
  8
0
 62
     0
 10
152.356
 20
122.786
 30
0.0
 11
154.428
 21
121.077
 31
0.0
  0
LINE
  8
0
 62
     0
 10
154.428
 20
121.077
 30
0.0
 11
156.137
 21
119.005
 31
0.0
  0
LINE
  8
0
 62
     0
 10
156.137
 20
119.005
 30
0.0
 11
157.428
 21
116.626
 31
0.0
  0
LINE
  8
0
 62
     0
 10
157.428
 20
116.626
 30
0.0
 11
158.244
 21
113.998
 31
0.0
  0
LINE
  8
0
 62
     0
 10
158.244
 20
113.998
 30
0.0
 11
158.53
 21
111.882
 31
0.0
  0
LINE
  8
0
 62
     0
 10
158.53
 20
111.882
 30
0.0
 11
158.53
 21
111.176
 31
0.0
  0
LINE
  8
0
 62
     0
 10
158.53
 20
111.176
 30
0.0
 11
158.53
 21
110.472
 31
0.0
  0
LINE
  8
0
 62
     0
 10
158.53
 20
110.472
 30
0.0
 11
158.244
 21
108.355
 31
0.0
  0
LINE
  8
0
 62
     0
 10
158.244
 20
108.355
 30
0.0
 11
157.428
 21
105.727
 31
0.0
  0
LINE
  8
0
 62
     0
 10
157.428
 20
105.727
 30
0.0
 11
156.137
 21
103.349
 31
0.0
  0
LINE
  8
0
 62
     0
 10
156.137
 20
103.349
 30
0.0
 11
154.428
 21
101.278
 31
0.0
  0
LINE
  8
0
 62
     0
 10
154.428
 20
101.278
 30
0.0
 11
152.356
 21
99.5673
 31
0.0
  0
LINE
  8
0
 62
     0
 10
152.356
 20
99.5673
 30
0.0
 11
149.977
 21
98.2775
 31
0.0
  0
LINE
  8
0
 62
     0
 10
149.977
 20
98.2775
 30
0.0
 11
147.35
 21
97.4619
 31
0.0
  0
LINE
  8
0
 62
     0
 10
147.35
 20
97.4619
 30
0.0
 11
145.233
 21
97.1765
 31
0.0
  0
LINE
  8
0
 62
     0
 10
145.233
 20
97.1765
 30
0.0
 11
144.529
 21
97.1765
 31
0.0
  0
LINE
  8
0
 62
     0
 10
144.529
 20
62.1757
 30
0.0
 11
143.823
 21
62.1757
 31
0.0
  0
LINE
  8
0
 62
     0
 10
143.823
 20
62.1757
 30
0.0
 11
141.707
 21
62.4611
 31
0.0
  0
LINE
  8
0
 62
     0
 10
141.707
 20
62.4611
 30
0.0
 11
139.078
 21
63.2767
 31
0.0
  0
LINE
  8
0
 62
     0
 10
139.078
 20
63.2767
 30
0.0
 11
136.701
 21
64.5679
 31
0.0
  0
LINE
  8
0
 62
     0
 10
136.701
 20
64.5679
 30
0.0
 11
134.629
 21
66.2767
 31
0.0
  0
LINE
  8
0
 62
     0
 10
134.629
 20
66.2767
 30
0.0
 11
132.92
 21
68.3493
 31
0.0
  0
LINE
  8
0
 62
     0
 10
132.92
 20
68.3493
 30
0.0
 11
131.629
 21
70.7277
 31
0.0
  0
LINE
  8
0
 62
     0
 10
131.629
 20
70.7277
 30
0.0
 11
130.813
 21
73.3559
 31
0.0
  0
LINE
  8
0
 62
     0
 10
130.813
 20
73.3559
 30
0.0
 11
130.529
 21
75.4726
 31
0.0
  0
LINE
  8
0
 62
     0
 10
130.529
 20
75.4726
 30
0.0
 11
130.529
 21
76.1767
 31
0.0
  0
LINE
  8
0
 62
     0
 10
130.529
 20
76.1767
 30
0.0
 11
130.529
 21
76.8823
 31
0.0
  0
LINE
  8
0
 62
     0
 10
130.529
 20
76.8823
 30
0.0
 11
130.813
 21
78.9989
 31
0.0
  0
LINE
  8
0
 62
     0
 10
130.813
 20
78.9989
 30
0.0
 11
131.629
 21
81.6268
 31
0.0
  0
LINE
  8
0
 62
     0
 10
131.629
 20
81.6268
 30
0.0
 11
132.92
 21
84.0052
 31
0.0
  0
LINE
  8
0
 62
     0
 10
132.92
 20
84.0052
 30
0.0
 11
134.629
 21
86.0764
 31
0.0
  0
LINE
  8
0
 62
     0
 10
134.629
 20
86.0764
 30
0.0
 11
136.701
 21
87.7866
 31
0.0
  0
LINE
  8
0
 62
     0
 10
136.701
 20
87.7866
 30
0.0
 11
139.078
 21
89.0764
 31
0.0
  0
LINE
  8
0
 62
     0
 10
139.078
 20
89.0764
 30
0.0
 11
141.707
 21
89.892
 31
0.0
  0
LINE
  8
0
 62
     0
 10
141.707
 20
89.892
 30
0.0
 11
143.823
 21
90.176
 31
0.0
  0
LINE
  8
0
 62
     0
 10
143.823
 20
90.176
 30
0.0
 11
144.529
 21
90.176
 31
0.0
  0
LINE
  8
0
 62
     0
 10
144.529
 20
90.176
 30
0.0
 11
145.233
 21
90.176
 31
0.0
  0
LINE
  8
0
 62
     0
 10
145.233
 20
90.176
 30
0.0
 11
147.35
 21
89.892
 31
0.0
  0
LINE
  8
0
 62
     0
 10
147.35
 20
89.892
 30
0.0
 11
149.977
 21
89.0764
 31
0.0
  0
LINE
  8
0
 62
     0
 10
149.977
 20
89.0764
 30
0.0
 11
152.356
 21
87.7866
 31
0.0
  0
LINE
  8
0
 62
     0
 10
152.356
 20
87.7866
 30
0.0
 11
154.428
 21
86.0764
 31
0.0
  0
LINE
  8
0
 62
     0
 10
154.428
 20
86.0764
 30
0.0
 11
156.137
 21
84.0052
 31
0.0
  0
LINE
  8
0
 62
     0
 10
156.137
 20
84.0052
 30
0.0
 11
157.428
 21
81.6268
 31
0.0
  0
LINE
  8
0
 62
     0
 10
157.428
 20
81.6268
 30
0.0
 11
158.244
 21
78.9989
 31
0.0
  0
LINE
  8
0
 62
     0
 10
158.244
 20
78.9989
 30
0.0
 11
158.53
 21
76.8823
 31
0.0
  0
LINE
  8
0
 62
     0
 10
158.53
 20
76.8823
 30
0.0
 11
158.53
 21
76.1767
 31
0.0
  0
LINE
  8
0
 62
     0
 10
158.53
 20
76.1767
 30
0.0
 11
158.53
 21
75.4726
 31
0.0
  0
LINE
  8
0
 62
     0
 10
158.53
 20
75.4726
 30
0.0
 11
158.244
 21
73.3559
 31
0.0
  0
LINE
  8
0
 62
     0
 10
158.244
 20
73.3559
 30
0.0
 11
157.428
 21
70.7277
 31
0.0
  0
LINE
  8
0
 62
     0
 10
157.428
 20
70.7277
 30
0.0
 11
156.137
 21
68.3493
 31
0.0
  0
LINE
  8
0
 62
     0
 10
156.137
 20
68.3493
 30
0.0
 11
154.428
 21
66.2767
 31
0.0
  0
LINE
  8
0
 62
     0
 10
154.428
 20
66.2767
 30
0.0
 11
152.356
 21
64.5679
 31
0.0
  0
LINE
  8
0
 62
     0
 10
152.356
 20
64.5679
 30
0.0
 11
149.977
 21
63.2767
 31
0.0
  0
LINE
  8
0
 62
     0
 10
149.977
 20
63.2767
 30
0.0
 11
147.35
 21
62.4611
 31
0.0
  0
LINE
  8
0
 62
     0
 10
147.35
 20
62.4611
 30
0.0
 11
145.233
 21
62.1757
 31
0.0
  0
LINE
  8
0
 62
     0
 10
145.233
 20
62.1757
 30
0.0
 11
144.529
 21
62.1757
 31
0.0
  0
LINE
  8
0
 62
     0
 10
56.0021
 20
82.1764
 30
0.0
 11
55.2965
 21
82.1764
 31
0.0
  0
LINE
  8
0
 62
     0
 10
55.2965
 20
82.1764
 30
0.0
 11
53.1798
 21
82.4618
 31
0.0
  0
LINE
  8
0
 62
     0
 10
53.1798
 20
82.4618
 30
0.0
 11
50.552
 21
83.2774
 31
0.0
  0
LINE
  8
0
 62
     0
 10
50.552
 20
83.2774
 30
0.0
 11
48.1736
 21
84.5675
 31
0.0
  0
LINE
  8
0
 62
     0
 10
48.1736
 20
84.5675
 30
0.0
 11
46.101
 21
86.2774
 31
0.0
  0
LINE
  8
0
 62
     0
 10
46.101
 20
86.2774
 30
0.0
 11
44.3921
 21
88.349
 31
0.0
  0
LINE
  8
0
 62
     0
 10
44.3921
 20
88.349
 30
0.0
 11
43.101
 21
90.7274
 31
0.0
  0
LINE
  8
0
 62
     0
 10
43.101
 20
90.7274
 30
0.0
 11
42.285
 21
93.3552
 31
0.0
  0
LINE
  8
0
 62
     0
 10
42.285
 20
93.3552
 30
0.0
 11
42.0014
 21
95.4719
 31
0.0
  0
LINE
  8
0
 62
     0
 10
42.0014
 20
95.4719
 30
0.0
 11
42.0014
 21
96.176
 31
0.0
  0
LINE
  8
0
 62
     0
 10
42.0014
 20
96.176
 30
0.0
 11
42.0014
 21
96.8816
 31
0.0
  0
LINE
  8
0
 62
     0
 10
42.0014
 20
96.8816
 30
0.0
 11
42.285
 21
98.9983
 31
0.0
  0
LINE
  8
0
 62
     0
 10
42.285
 20
98.9983
 30
0.0
 11
43.101
 21
101.626
 31
0.0
  0
LINE
  8
0
 62
     0
 10
43.101
 20
101.626
 30
0.0
 11
44.3921
 21
104.005
 31
0.0
  0
LINE
  8
0
 62
     0
 10
44.3921
 20
104.005
 30
0.0
 11
46.101
 21
106.077
 31
0.0
  0
LINE
  8
0
 62
     0
 10
46.101
 20
106.077
 30
0.0
 11
48.1736
 21
107.786
 31
0.0
  0
LINE
  8
0
 62
     0
 10
48.1736
 20
107.786
 30
0.0
 11
50.552
 21
109.077
 31
0.0
  0
LINE
  8
0
 62
     0
 10
50.552
 20
109.077
 30
0.0
 11
53.1798
 21
109.893
 31
0.0
  0
LINE
  8
0
 62
     0
 10
53.1798
 20
109.893
 30
0.0
 11
55.2965
 21
110.177
 31
0.0
  0
LINE
  8
0
 62
     0
 10
55.2965
 20
110.177
 30
0.0
 11
56.0021
 21
110.177
 31
0.0
  0
LINE
  8
0
 62
     0
 10
56.0021
 20
110.177
 30
0.0
 11
56.7062
 21
110.177
 31
0.0
  0
LINE
  8
0
 62
     0
 10
56.7062
 20
110.177
 30
0.0
 11
58.8229
 21
109.893
 31
0.0
  0
LINE
  8
0
 62
     0
 10
58.8229
 20
109.893
 30
0.0
 11
61.4507
 21
109.077
 31
0.0
  0
LINE
  8
0
 62
     0
 10
61.4507
 20
109.077
 30
0.0
 11
63.8281
 21
107.786
 31
0.0
  0
LINE
  8
0
 62
     0
 10
63.8281
 20
107.786
 30
0.0
 11
65.9007
 21
106.077
 31
0.0
  0
LINE
  8
0
 62
     0
 10
65.9007
 20
106.077
 30
0.0
 11
67.6092
 21
104.005
 31
0.0
  0
LINE
  8
0
 62
     0
 10
67.6092
 20
104.005
 30
0.0
 11
68.9007
 21
101.626
 31
0.0
  0
LINE
  8
0
 62
     0
 10
68.9007
 20
101.626
 30
0.0
 11
69.7163
 21
98.9983
 31
0.0
  0
LINE
  8
0
 62
     0
 10
69.7163
 20
98.9983
 30
0.0
 11
70.0017
 21
96.8816
 31
0.0
  0
LINE
  8
0
 62
     0
 10
70.0017
 20
96.8816
 30
0.0
 11
70.0017
 21
96.176
 31
0.0
  0
LINE
  8
0
 62
     0
 10
70.0017
 20
96.176
 30
0.0
 11
70.0017
 21
95.4719
 31
0.0
  0
LINE
  8
0
 62
     0
 10
70.0017
 20
95.4719
 30
0.0
 11
69.7163
 21
93.3552
 31
0.0
  0
LINE
  8
0
 62
     0
 10
69.7163
 20
93.3552
 30
0.0
 11
68.9007
 21
90.7274
 31
0.0
  0
LINE
  8
0
 62
     0
 10
68.9007
 20
90.7274
 30
0.0
 11
67.6092
 21
88.349
 31
0.0
  0
LINE
  8
0
 62
     0
 10
67.6092
 20
88.349
 30
0.0
 11
65.9007
 21
86.2774
 31
0.0
  0
LINE
  8
0
 62
     0
 10
65.9007
 20
86.2774
 30
0.0
 11
63.8281
 21
84.5675
 31
0.0
  0
LINE
  8
0
 62
     0
 10
63.8281
 20
84.5675
 30
0.0
 11
61.4507
 21
83.2774
 31
0.0
  0
LINE
  8
0
 62
     0
 10
61.4507
 20
83.2774
 30
0.0
 11
58.8229
 21
82.4618
 31
0.0
  0
LINE
  8
0
 62
     0
 10
58.8229
 20
82.4618
 30
0.0
 11
56.7062
 21
82.1764
 31
0.0
  0
LINE
  8
0
 62
     0
 10
56.7062
 20
82.1764
 30
0.0
 11
56.0021
 21
82.1764
 31
0.0
  0
LINE
  8
0
 62
     0
 10
79.1573
 20
55.149
 30
0.0
 11
78.8652
 21
55.149
 31
0.0
  0
LINE
  8
0
 62
     0
 10
78.8652
 20
55.149
 30
0.0
 11
77.9886
 21
55.3847
 31
0.0
  0
LINE
  8
0
 62
     0
 10
77.9886
 20
55.3847
 30
0.0
 11
77.035
 21
56.0282
 31
0.0
  0
LINE
  8
0
 62
     0
 10
77.035
 20
56.0282
 30
0.0
 11
76.393
 21
56.9817
 31
0.0
  0
LINE
  8
0
 62
     0
 10
76.393
 20
56.9817
 30
0.0
 11
76.1573
 21
57.8584
 31
0.0
  0
LINE
  8
0
 62
     0
 10
76.1573
 20
57.8584
 30
0.0
 11
76.1573
 21
58.1491
 31
0.0
  0
LINE
  8
0
 62
     0
 10
76.1573
 20
58.1491
 30
0.0
 11
76.1573
 21
58.4412
 31
0.0
  0
LINE
  8
0
 62
     0
 10
76.1573
 20
58.4412
 30
0.0
 11
76.393
 21
59.3178
 31
0.0
  0
LINE
  8
0
 62
     0
 10
76.393
 20
59.3178
 30
0.0
 11
77.035
 21
60.2714
 31
0.0
  0
LINE
  8
0
 62
     0
 10
77.035
 20
60.2714
 30
0.0
 11
77.9886
 21
60.9134
 31
0.0
  0
LINE
  8
0
 62
     0
 10
77.9886
 20
60.9134
 30
0.0
 11
78.8652
 21
61.1491
 31
0.0
  0
LINE
  8
0
 62
     0
 10
78.8652
 20
61.1491
 30
0.0
 11
79.1573
 21
61.1491
 31
0.0
  0
LINE
  8
0
 62
     0
 10
79.1573
 20
61.1491
 30
0.0
 11
79.448
 21
61.1491
 31
0.0
  0
LINE
  8
0
 62
     0
 10
79.448
 20
61.1491
 30
0.0
 11
80.3243
 21
60.9134
 31
0.0
  0
LINE
  8
0
 62
     0
 10
80.3243
 20
60.9134
 30
0.0
 11
81.2782
 21
60.2714
 31
0.0
  0
LINE
  8
0
 62
     0
 10
81.2782
 20
60.2714
 30
0.0
 11
81.9217
 21
59.3178
 31
0.0
  0
LINE
  8
0
 62
     0
 10
81.9217
 20
59.3178
 30
0.0
 11
82.1574
 21
58.4412
 31
0.0
  0
LINE
  8
0
 62
     0
 10
82.1574
 20
58.4412
 30
0.0
 11
82.1574
 21
58.1491
 31
0.0
  0
LINE
  8
0
 62
     0
 10
82.1574
 20
58.1491
 30
0.0
 11
82.1574
 21
57.8584
 31
0.0
  0
LINE
  8
0
 62
     0
 10
82.1574
 20
57.8584
 30
0.0
 11
81.9217
 21
56.9817
 31
0.0
  0
LINE
  8
0
 62
     0
 10
81.9217
 20
56.9817
 30
0.0
 11
81.2782
 21
56.0282
 31
0.0
  0
LINE
  8
0
 62
     0
 10
81.2782
 20
56.0282
 30
0.0
 11
80.3243
 21
55.3847
 31
0.0
  0
LINE
  8
0
 62
     0
 10
80.3243
 20
55.3847
 30
0.0
 11
79.448
 21
55.149
 31
0.0
  0
LINE
  8
0
 62
     0
 10
79.448
 20
55.149
 30
0.0
 11
79.1573
 21
55.149
 31
0.0
  0
LINE
  8
0
 62
     0
 10
33.2135
 20
55.149
 30
0.0
 11
32.9213
 21
55.149
 31
0.0
  0
LINE
  8
0
 62
     0
 10
32.9213
 20
55.149
 30
0.0
 11
32.0449
 21
55.3847
 31
0.0
  0
LINE
  8
0
 62
     0
 10
32.0449
 20
55.3847
 30
0.0
 11
31.0913
 21
56.0282
 31
0.0
  0
LINE
  8
0
 62
     0
 10
31.0913
 20
56.0282
 30
0.0
 11
30.4491
 21
56.9817
 31
0.0
  0
LINE
  8
0
 62
     0
 10
30.4491
 20
56.9817
 30
0.0
 11
30.2135
 21
57.8584
 31
0.0
  0
LINE
  8
0
 62
     0
 10
30.2135
 20
57.8584
 30
0.0
 11
30.2135
 21
58.1491
 31
0.0
  0
LINE
  8
0
 62
     0
 10
30.2135
 20
58.1491
 30
0.0
 11
30.2135
 21
58.4412
 31
0.0
  0
LINE
  8
0
 62
     0
 10
30.2135
 20
58.4412
 30
0.0
 11
30.4491
 21
59.3178
 31
0.0
  0
LINE
  8
0
 62
     0
 10
30.4491
 20
59.3178
 30
0.0
 11
31.0913
 21
60.2714
 31
0.0
  0
LINE
  8
0
 62
     0
 10
31.0913
 20
60.2714
 30
0.0
 11
32.0449
 21
60.9134
 31
0.0
  0
LINE
  8
0
 62
     0
 10
32.0449
 20
60.9134
 30
0.0
 11
32.9213
 21
61.1491
 31
0.0
  0
LINE
  8
0
 62
     0
 10
32.9213
 20
61.1491
 30
0.0
 11
33.2135
 21
61.1491
 31
0.0
  0
LINE
  8
0
 62
     0
 10
33.2135
 20
61.1491
 30
0.0
 11
33.5043
 21
61.1491
 31
0.0
  0
LINE
  8
0
 62
     0
 10
33.5043
 20
61.1491
 30
0.0
 11
34.3807
 21
60.9134
 31
0.0
  0
LINE
  8
0
 62
     0
 10
34.3807
 20
60.9134
 30
0.0
 11
35.3342
 21
60.2714
 31
0.0
  0
LINE
  8
0
 62
     0
 10
35.3342
 20
60.2714
 30
0.0
 11
35.9777
 21
59.3178
 31
0.0
  0
LINE
  8
0
 62
     0
 10
35.9777
 20
59.3178
 30
0.0
 11
36.2133
 21
58.4412
 31
0.0
  0
LINE
  8
0
 62
     0
 10
36.2133
 20
58.4412
 30
0.0
 11
36.2133
 21
58.1491
 31
0.0
  0
LINE
  8
0
 62
     0
 10
36.2133
 20
58.1491
 30
0.0
 11
36.2133
 21
57.8584
 31
0.0
  0
LINE
  8
0
 62
     0
 10
36.2133
 20
57.8584
 30
0.0
 11
35.9777
 21
56.9817
 31
0.0
  0
LINE
  8
0
 62
     0
 10
35.9777
 20
56.9817
 30
0.0
 11
35.3342
 21
56.0282
 31
0.0
  0
LINE
  8
0
 62
     0
 10
35.3342
 20
56.0282
 30
0.0
 11
34.3807
 21
55.3847
 31
0.0
  0
LINE
  8
0
 62
     0
 10
34.3807
 20
55.3847
 30
0.0
 11
33.5043
 21
55.149
 31
0.0
  0
LINE
  8
0
 62
     0
 10
33.5043
 20
55.149
 30
0.0
 11
33.2135
 21
55.149
 31
0.0
  0
LINE
  8
0
 62
     0
 10
33.2135
 20
130.987
 30
0.0
 11
32.9213
 21
130.987
 31
0.0
  0
LINE
  8
0
 62
     0
 10
32.9213
 20
130.987
 30
0.0
 11
32.0449
 21
131.224
 31
0.0
  0
LINE
  8
0
 62
     0
 10
32.0449
 20
131.224
 30
0.0
 11
31.0913
 21
131.866
 31
0.0
  0
LINE
  8
0
 62
     0
 10
31.0913
 20
131.866
 30
0.0
 11
30.4491
 21
132.819
 31
0.0
  0
LINE
  8
0
 62
     0
 10
30.4491
 20
132.819
 30
0.0
 11
30.2135
 21
133.696
 31
0.0
  0
LINE
  8
0
 62
     0
 10
30.2135
 20
133.696
 30
0.0
 11
30.2135
 21
133.987
 31
0.0
  0
LINE
  8
0
 62
     0
 10
30.2135
 20
133.987
 30
0.0
 11
30.2135
 21
134.279
 31
0.0
  0
LINE
  8
0
 62
     0
 10
30.2135
 20
134.279
 30
0.0
 11
30.4491
 21
135.155
 31
0.0
  0
LINE
  8
0
 62
     0
 10
30.4491
 20
135.155
 30
0.0
 11
31.0913
 21
136.109
 31
0.0
  0
LINE
  8
0
 62
     0
 10
31.0913
 20
136.109
 30
0.0
 11
32.0449
 21
136.751
 31
0.0
  0
LINE
  8
0
 62
     0
 10
32.0449
 20
136.751
 30
0.0
 11
32.9213
 21
136.987
 31
0.0
  0
LINE
  8
0
 62
     0
 10
32.9213
 20
136.987
 30
0.0
 11
33.2135
 21
136.987
 31
0.0
  0
LINE
  8
0
 62
     0
 10
33.2135
 20
136.987
 30
0.0
 11
33.5043
 21
136.987
 31
0.0
  0
LINE
  8
0
 62
     0
 10
33.5043
 20
136.987
 30
0.0
 11
34.3807
 21
136.751
 31
0.0
  0
LINE
  8
0
 62
     0
 10
34.3807
 20
136.751
 30
0.0
 11
35.3342
 21
136.109
 31
0.0
  0
LINE
  8
0
 62
     0
 10
35.3342
 20
136.109
 30
0.0
 11
35.9777
 21
135.155
 31
0.0
  0
LINE
  8
0
 62
     0
 10
35.9777
 20
135.155
 30
0.0
 11
36.2133
 21
134.279
 31
0.0
  0
LINE
  8
0
 62
     0
 10
36.2133
 20
134.279
 30
0.0
 11
36.2133
 21
133.987
 31
0.0
  0
LINE
  8
0
 62
     0
 10
36.2133
 20
133.987
 30
0.0
 11
36.2133
 21
133.696
 31
0.0
  0
LINE
  8
0
 62
     0
 10
36.2133
 20
133.696
 30
0.0
 11
35.9777
 21
132.819
 31
0.0
  0
LINE
  8
0
 62
     0
 10
35.9777
 20
132.819
 30
0.0
 11
35.3342
 21
131.866
 31
0.0
  0
LINE
  8
0
 62
     0
 10
35.3342
 20
131.866
 30
0.0
 11
34.3807
 21
131.224
 31
0.0
  0
LINE
  8
0
 62
     0
 10
34.3807
 20
131.224
 30
0.0
 11
33.5043
 21
130.987
 31
0.0
  0
LINE
  8
0
 62
     0
 10
33.5043
 20
130.987
 30
0.0
 11
33.2135
 21
130.987
 31
0.0
  0
LINE
  8
0
 62
     0
 10
79.1573
 20
130.987
 30
0.0
 11
78.8652
 21
130.987
 31
0.0
  0
LINE
  8
0
 62
     0
 10
78.8652
 20
130.987
 30
0.0
 11
77.9886
 21
131.224
 31
0.0
  0
LINE
  8
0
 62
     0
 10
77.9886
 20
131.224
 30
0.0
 11
77.035
 21
131.866
 31
0.0
  0
LINE
  8
0
 62
     0
 10
77.035
 20
131.866
 30
0.0
 11
76.393
 21
132.819
 31
0.0
  0
LINE
  8
0
 62
     0
 10
76.393
 20
132.819
 30
0.0
 11
76.1573
 21
133.696
 31
0.0
  0
LINE
  8
0
 62
     0
 10
76.1573
 20
133.696
 30
0.0
 11
76.1573
 21
133.987
 31
0.0
  0
LINE
  8
0
 62
     0
 10
76.1573
 20
133.987
 30
0.0
 11
76.1573
 21
134.279
 31
0.0
  0
LINE
  8
0
 62
     0
 10
76.1573
 20
134.279
 30
0.0
 11
76.393
 21
135.155
 31
0.0
  0
LINE
  8
0
 62
     0
 10
76.393
 20
135.155
 30
0.0
 11
77.035
 21
136.109
 31
0.0
  0
LINE
  8
0
 62
     0
 10
77.035
 20
136.109
 30
0.0
 11
77.9886
 21
136.751
 31
0.0
  0
LINE
  8
0
 62
     0
 10
77.9886
 20
136.751
 30
0.0
 11
78.8652
 21
136.987
 31
0.0
  0
LINE
  8
0
 62
     0
 10
78.8652
 20
136.987
 30
0.0
 11
79.1573
 21
136.987
 31
0.0
  0
LINE
  8
0
 62
     0
 10
79.1573
 20
136.987
 30
0.0
 11
79.448
 21
136.987
 31
0.0
  0
LINE
  8
0
 62
     0
 10
79.448
 20
136.987
 30
0.0
 11
80.3243
 21
136.751
 31
0.0
  0
LINE
  8
0
 62
     0
 10
80.3243
 20
136.751
 30
0.0
 11
81.2782
 21
136.109
 31
0.0
  0
LINE
  8
0
 62
     0
 10
81.2782
 20
136.109
 30
0.0
 11
81.9217
 21
135.155
 31
0.0
  0
LINE
  8
0
 62
     0
 10
81.9217
 20
135.155
 30
0.0
 11
82.1574
 21
134.279
 31
0.0
  0
LINE
  8
0
 62
     0
 10
82.1574
 20
134.279
 30
0.0
 11
82.1574
 21
133.987
 31
0.0
  0
LINE
  8
0
 62
     0
 10
82.1574
 20
133.987
 30
0.0
 11
82.1574
 21
133.696
 31
0.0
  0
LINE
  8
0
 62
     0
 10
82.1574
 20
133.696
 30
0.0
 11
81.9217
 21
132.819
 31
0.0
  0
LINE
  8
0
 62
     0
 10
81.9217
 20
132.819
 30
0.0
 11
81.2782
 21
131.866
 31
0.0
  0
LINE
  8
0
 62
     0
 10
81.2782
 20
131.866
 30
0.0
 11
80.3243
 21
131.224
 31
0.0
  0
LINE
  8
0
 62
     0
 10
80.3243
 20
131.224
 30
0.0
 11
79.448
 21
130.987
 31
0.0
  0
LINE
  8
0
 62
     0
 10
79.448
 20
130.987
 30
0.0
 11
79.1573
 21
130.987
 31
0.0
  0
ENDSEC
  0
EOF
