<?xml version="1.0" encoding="UTF-8"?>
<!DOCTYPE svg PUBLIC "-//W3C//DTD SVG 1.1//EN" "http://www.w3.org/Graphics/SVG/1.1/DTD/svg11.dtd">
<svg version="1.1" xmlns="http://www.w3.org/2000/svg" xmlns:xlink="http://www.w3.org/1999/xlink" x="0px" y="0px" width="850.394" height="680.315" viewBox="0, 0, 850.394, 680.315">
  <g id="Layer 1">
    <path d="M28.846,28.846 L822.547,28.846 L822.547,652.469 L28.846,652.469 z" fill-opacity="0" stroke="#000000" stroke-width="1"/>
    <path d="M734.673,349.161 C712.756,349.161 694.988,331.394 694.988,309.476 C694.988,287.559 712.756,269.791 734.673,269.791 C756.591,269.791 774.358,287.559 774.358,309.476 C774.358,331.394 756.591,349.161 734.673,349.161 z" fill-opacity="0" stroke="#000000" stroke-width="1"/>
    <path d="M734.673,448.374 C712.756,448.374 694.988,430.606 694.988,408.689 C694.988,386.772 712.756,369.004 734.673,369.004 C756.591,369.004 774.358,386.772 774.358,408.689 C774.358,430.606 756.591,448.374 734.673,448.374 z" fill-opacity="0" stroke="#000000" stroke-width="1"/>
    <path d="M635.461,320.815 C613.543,320.815 595.776,303.047 595.776,281.13 C595.776,259.212 613.543,241.445 635.461,241.445 C657.378,241.445 675.146,259.212 675.146,281.13 C675.146,303.047 657.378,320.815 635.461,320.815 z" fill-opacity="0" stroke="#000000" stroke-width="1"/>
    <path d="M635.461,420.028 C613.543,420.028 595.776,402.26 595.776,380.343 C595.776,358.425 613.543,340.657 635.461,340.657 C657.378,340.657 675.146,358.425 675.146,380.343 C675.146,402.26 657.378,420.028 635.461,420.028 z" fill-opacity="0" stroke="#000000" stroke-width="1"/>
    <path d="M536.248,320.815 C514.331,320.815 496.563,303.047 496.563,281.13 C496.563,259.212 514.331,241.445 536.248,241.445 C558.166,241.445 575.933,259.212 575.933,281.13 C575.933,303.047 558.166,320.815 536.248,320.815 z" fill-opacity="0" stroke="#000000" stroke-width="1"/>
    <path d="M536.248,420.028 C514.331,420.028 496.563,402.26 496.563,380.343 C496.563,358.425 514.331,340.657 536.248,340.657 C558.166,340.657 575.933,358.425 575.933,380.343 C575.933,402.26 558.166,420.028 536.248,420.028 z" fill-opacity="0" stroke="#000000" stroke-width="1"/>
    <path d="M437.035,377.508 C415.118,377.508 397.35,359.74 397.35,337.823 C397.35,315.905 415.118,298.138 437.035,298.138 C458.953,298.138 476.72,315.905 476.72,337.823 C476.72,359.74 458.953,377.508 437.035,377.508 z" fill-opacity="0" stroke="#000000" stroke-width="1"/>
    <path d="M437.035,476.72 C415.118,476.72 397.35,458.953 397.35,437.035 C397.35,415.118 415.118,397.35 437.035,397.35 C458.953,397.35 476.72,415.118 476.72,437.035 C476.72,458.953 458.953,476.72 437.035,476.72 z" fill-opacity="0" stroke="#000000" stroke-width="1"/>
    <path d="M186.091,420.028 C164.173,420.028 146.406,402.26 146.406,380.342 C146.406,358.425 164.173,340.657 186.091,340.657 C208.008,340.657 225.776,358.425 225.776,380.342 C225.776,402.26 208.008,420.028 186.091,420.028 z" fill-opacity="0" stroke="#000000" stroke-width="1"/>
    <path d="M251.73,496.641 C247.034,496.641 243.227,492.834 243.227,488.137 C243.227,483.441 247.034,479.633 251.73,479.633 C256.427,479.633 260.234,483.441 260.234,488.137 C260.234,492.834 256.427,496.641 251.73,496.641 z" fill-opacity="0" stroke="#000000" stroke-width="1"/>
    <path d="M121.497,496.641 C116.8,496.641 112.993,492.834 112.993,488.137 C112.993,483.441 116.8,479.633 121.497,479.633 C126.193,479.633 130,483.441 130,488.137 C130,492.834 126.193,496.641 121.497,496.641 z" fill-opacity="0" stroke="#000000" stroke-width="1"/>
    <path d="M121.497,281.668 C116.8,281.668 112.993,277.861 112.993,273.164 C112.993,268.467 116.8,264.66 121.497,264.66 C126.193,264.66 130,268.467 130,273.164 C130,277.861 126.193,281.668 121.497,281.668 z" fill-opacity="0" stroke="#000000" stroke-width="1"/>
    <path d="M251.73,281.668 C247.034,281.668 243.227,277.861 243.227,273.164 C243.227,268.467 247.034,264.66 251.73,264.66 C256.427,264.66 260.234,268.467 260.234,273.164 C260.234,277.861 256.427,281.668 251.73,281.668 z" fill-opacity="0" stroke="#000000" stroke-width="1"/>
  </g>
  <defs/>
</svg>
