  0
SECTION
  2
HEADER
  9
$ACADVER
  1
AC1009
  9
$EXTMIN
 10
0.0
 20
0.0
 30
0.0
  9
$EXTMAX
 10
1000.0
 20
1000.0
 30
0.0
  9
$FILLMODE
 70
 0
  9
$SPLFRAME
 70
 1
  0
ENDSEC
  0
SECTION
  2
TABLES
  0
TABLE
  2
LAYER
 70
1
  0
LAYER
  2
0
 70
     0
 62
     7
  6
CONTINUOUS
  0
ENDTAB
  0
ENDSEC
  0
SECTION
  2
ENTITIES
  0
LINE
  8
0
 62
     0
 10
0.545705
 20
90.176
 30
0.0
 11
0.671103
 21
85.4206
 31
0.0
  0
LINE
  8
0
 62
     0
 10
0.671103
 20
85.4206
 30
0.0
 11
0.671103
 21
10.4207
 31
0.0
  0
LINE
  8
0
 62
     0
 10
0.671103
 20
10.4207
 30
0.0
 11
0.671103
 21
10.4207
 31
0.0
  0
LINE
  8
0
 62
     0
 10
0.671103
 20
10.4207
 30
0.0
 11
0.694531
 21
9.98114
 31
0.0
  0
LINE
  8
0
 62
     0
 10
0.694531
 20
9.98114
 30
0.0
 11
0.844737
 21
8.82082
 31
0.0
  0
LINE
  8
0
 62
     0
 10
0.844737
 20
8.82082
 30
0.0
 11
1.23059
 21
7.17959
 31
0.0
  0
LINE
  8
0
 62
     0
 10
1.23059
 20
7.17959
 30
0.0
 11
1.96784
 21
5.29855
 31
0.0
  0
LINE
  8
0
 62
     0
 10
1.96784
 20
5.29855
 30
0.0
 11
3.16811
 21
3.41891
 31
0.0
  0
LINE
  8
0
 62
     0
 10
3.16811
 20
3.41891
 30
0.0
 11
4.94302
 21
1.77767
 31
0.0
  0
LINE
  8
0
 62
     0
 10
4.94302
 20
1.77767
 30
0.0
 11
7.40696
 21
0.617361
 31
0.0
  0
LINE
  8
0
 62
     0
 10
7.40696
 20
0.617361
 30
0.0
 11
9.85435
 21
0.176389
 31
0.0
  0
LINE
  8
0
 62
     0
 10
9.85435
 20
0.176389
 30
0.0
 11
10.6715
 21
0.176389
 31
0.0
  0
LINE
  8
0
 62
     0
 10
10.6715
 20
0.176389
 30
0.0
 11
11.078
 21
0.176389
 31
0.0
  0
LINE
  8
0
 62
     0
 10
11.078
 20
0.176389
 30
0.0
 11
12.3004
 21
0.176389
 31
0.0
  0
LINE
  8
0
 62
     0
 10
12.3004
 20
0.176389
 30
0.0
 11
15.2797
 21
0.176389
 31
0.0
  0
LINE
  8
0
 62
     0
 10
15.2797
 20
0.176389
 30
0.0
 11
19.5158
 21
0.176389
 31
0.0
  0
LINE
  8
0
 62
     0
 10
19.5158
 20
0.176389
 30
0.0
 11
24.9218
 21
0.176389
 31
0.0
  0
LINE
  8
0
 62
     0
 10
24.9218
 20
0.176389
 30
0.0
 11
31.4069
 21
0.176389
 31
0.0
  0
LINE
  8
0
 62
     0
 10
31.4069
 20
0.176389
 30
0.0
 11
38.88
 21
0.176389
 31
0.0
  0
LINE
  8
0
 62
     0
 10
38.88
 20
0.176389
 30
0.0
 11
47.2514
 21
0.176389
 31
0.0
  0
LINE
  8
0
 62
     0
 10
47.2514
 20
0.176389
 30
0.0
 11
56.4321
 21
0.176389
 31
0.0
  0
LINE
  8
0
 62
     0
 10
56.4321
 20
0.176389
 30
0.0
 11
66.3317
 21
0.176389
 31
0.0
  0
LINE
  8
0
 62
     0
 10
66.3317
 20
0.176389
 30
0.0
 11
76.86
 21
0.176389
 31
0.0
  0
LINE
  8
0
 62
     0
 10
76.86
 20
0.176389
 30
0.0
 11
87.9285
 21
0.176389
 31
0.0
  0
LINE
  8
0
 62
     0
 10
87.9285
 20
0.176389
 30
0.0
 11
99.4449
 21
0.176389
 31
0.0
  0
LINE
  8
0
 62
     0
 10
99.4449
 20
0.176389
 30
0.0
 11
111.321
 21
0.176389
 31
0.0
  0
LINE
  8
0
 62
     0
 10
111.321
 20
0.176389
 30
0.0
 11
123.465
 21
0.176389
 31
0.0
  0
LINE
  8
0
 62
     0
 10
123.465
 20
0.176389
 30
0.0
 11
135.789
 21
0.176389
 31
0.0
  0
LINE
  8
0
 62
     0
 10
135.789
 20
0.176389
 30
0.0
 11
148.203
 21
0.176389
 31
0.0
  0
LINE
  8
0
 62
     0
 10
148.203
 20
0.176389
 30
0.0
 11
160.614
 21
0.176389
 31
0.0
  0
LINE
  8
0
 62
     0
 10
160.614
 20
0.176389
 30
0.0
 11
172.936
 21
0.176389
 31
0.0
  0
LINE
  8
0
 62
     0
 10
172.936
 20
0.176389
 30
0.0
 11
185.077
 21
0.176389
 31
0.0
  0
LINE
  8
0
 62
     0
 10
185.077
 20
0.176389
 30
0.0
 11
196.948
 21
0.176389
 31
0.0
  0
LINE
  8
0
 62
     0
 10
196.948
 20
0.176389
 30
0.0
 11
208.457
 21
0.176389
 31
0.0
  0
LINE
  8
0
 62
     0
 10
208.457
 20
0.176389
 30
0.0
 11
219.517
 21
0.176389
 31
0.0
  0
LINE
  8
0
 62
     0
 10
219.517
 20
0.176389
 30
0.0
 11
230.036
 21
0.176389
 31
0.0
  0
LINE
  8
0
 62
     0
 10
230.036
 20
0.176389
 30
0.0
 11
239.925
 21
0.176389
 31
0.0
  0
LINE
  8
0
 62
     0
 10
239.925
 20
0.176389
 30
0.0
 11
249.093
 21
0.176389
 31
0.0
  0
LINE
  8
0
 62
     0
 10
249.093
 20
0.176389
 30
0.0
 11
257.451
 21
0.176389
 31
0.0
  0
LINE
  8
0
 62
     0
 10
257.451
 20
0.176389
 30
0.0
 11
264.909
 21
0.176389
 31
0.0
  0
LINE
  8
0
 62
     0
 10
264.909
 20
0.176389
 30
0.0
 11
271.376
 21
0.176389
 31
0.0
  0
LINE
  8
0
 62
     0
 10
271.376
 20
0.176389
 30
0.0
 11
276.762
 21
0.176389
 31
0.0
  0
LINE
  8
0
 62
     0
 10
276.762
 20
0.176389
 30
0.0
 11
280.98
 21
0.176389
 31
0.0
  0
LINE
  8
0
 62
     0
 10
280.98
 20
0.176389
 30
0.0
 11
283.936
 21
0.176389
 31
0.0
  0
LINE
  8
0
 62
     0
 10
283.936
 20
0.176389
 30
0.0
 11
285.142
 21
0.176389
 31
0.0
  0
LINE
  8
0
 62
     0
 10
285.142
 20
0.176389
 30
0.0
 11
285.545
 21
0.176389
 31
0.0
  0
LINE
  8
0
 62
     0
 10
285.545
 20
0.176389
 30
0.0
 11
287.964
 21
0.176389
 31
0.0
  0
LINE
  8
0
 62
     0
 10
287.964
 20
0.176389
 30
0.0
 11
295.225
 21
0.191547
 31
0.0
  0
LINE
  8
0
 62
     0
 10
295.225
 20
0.191547
 30
0.0
 11
303.699
 21
0.2949
 31
0.0
  0
LINE
  8
0
 62
     0
 10
303.699
 20
0.2949
 30
0.0
 11
311.044
 21
0.573264
 31
0.0
  0
LINE
  8
0
 62
     0
 10
311.044
 20
0.573264
 30
0.0
 11
317.342
 21
1.11483
 31
0.0
  0
LINE
  8
0
 62
     0
 10
317.342
 20
1.11483
 30
0.0
 11
322.672
 21
2.0078
 31
0.0
  0
LINE
  8
0
 62
     0
 10
322.672
 20
2.0078
 30
0.0
 11
327.116
 21
3.34174
 31
0.0
  0
LINE
  8
0
 62
     0
 10
327.116
 20
3.34174
 30
0.0
 11
330.755
 21
5.2021
 31
0.0
  0
LINE
  8
0
 62
     0
 10
330.755
 20
5.2021
 30
0.0
 11
333.67
 21
7.67704
 31
0.0
  0
LINE
  8
0
 62
     0
 10
333.67
 20
7.67704
 30
0.0
 11
335.938
 21
10.8562
 31
0.0
  0
LINE
  8
0
 62
     0
 10
335.938
 20
10.8562
 30
0.0
 11
337.644
 21
14.8249
 31
0.0
  0
LINE
  8
0
 62
     0
 10
337.644
 20
14.8249
 30
0.0
 11
338.865
 21
19.6742
 31
0.0
  0
LINE
  8
0
 62
     0
 10
338.865
 20
19.6742
 30
0.0
 11
339.685
 21
25.4896
 31
0.0
  0
LINE
  8
0
 62
     0
 10
339.685
 20
25.4896
 30
0.0
 11
340.181
 21
32.3591
 31
0.0
  0
LINE
  8
0
 62
     0
 10
340.181
 20
32.3591
 30
0.0
 11
340.438
 21
40.3722
 31
0.0
  0
LINE
  8
0
 62
     0
 10
340.438
 20
40.3722
 30
0.0
 11
340.531
 21
49.615
 31
0.0
  0
LINE
  8
0
 62
     0
 10
340.531
 20
49.615
 30
0.0
 11
340.545
 21
57.5359
 31
0.0
  0
LINE
  8
0
 62
     0
 10
340.545
 20
57.5359
 30
0.0
 11
340.545
 21
60.1761
 31
0.0
  0
LINE
  8
0
 62
     0
 10
340.545
 20
60.1761
 30
0.0
 11
340.545
 21
61.7693
 31
0.0
  0
LINE
  8
0
 62
     0
 10
340.545
 20
61.7693
 30
0.0
 11
340.545
 21
66.5484
 31
0.0
  0
LINE
  8
0
 62
     0
 10
340.545
 20
66.5484
 30
0.0
 11
340.548
 21
74.3398
 31
0.0
  0
LINE
  8
0
 62
     0
 10
340.548
 20
74.3398
 30
0.0
 11
340.551
 21
83.4485
 31
0.0
  0
LINE
  8
0
 62
     0
 10
340.551
 20
83.4485
 30
0.0
 11
340.555
 21
93.7673
 31
0.0
  0
LINE
  8
0
 62
     0
 10
340.555
 20
93.7673
 30
0.0
 11
340.56
 21
105.191
 31
0.0
  0
LINE
  8
0
 62
     0
 10
340.56
 20
105.191
 30
0.0
 11
340.567
 21
117.614
 31
0.0
  0
LINE
  8
0
 62
     0
 10
340.567
 20
117.614
 30
0.0
 11
340.574
 21
130.93
 31
0.0
  0
LINE
  8
0
 62
     0
 10
340.574
 20
130.93
 30
0.0
 11
340.582
 21
145.034
 31
0.0
  0
LINE
  8
0
 62
     0
 10
340.582
 20
145.034
 30
0.0
 11
340.59
 21
159.822
 31
0.0
  0
LINE
  8
0
 62
     0
 10
340.59
 20
159.822
 30
0.0
 11
340.599
 21
175.186
 31
0.0
  0
LINE
  8
0
 62
     0
 10
340.599
 20
175.186
 30
0.0
 11
340.608
 21
191.022
 31
0.0
  0
LINE
  8
0
 62
     0
 10
340.608
 20
191.022
 30
0.0
 11
340.618
 21
207.222
 31
0.0
  0
LINE
  8
0
 62
     0
 10
340.618
 20
207.222
 30
0.0
 11
340.626
 21
223.684
 31
0.0
  0
LINE
  8
0
 62
     0
 10
340.626
 20
223.684
 30
0.0
 11
340.636
 21
240.301
 31
0.0
  0
LINE
  8
0
 62
     0
 10
340.636
 20
240.301
 30
0.0
 11
340.645
 21
256.965
 31
0.0
  0
LINE
  8
0
 62
     0
 10
340.645
 20
256.965
 30
0.0
 11
340.655
 21
273.575
 31
0.0
  0
LINE
  8
0
 62
     0
 10
340.655
 20
273.575
 30
0.0
 11
340.663
 21
290.022
 31
0.0
  0
LINE
  8
0
 62
     0
 10
340.663
 20
290.022
 30
0.0
 11
340.672
 21
306.2
 31
0.0
  0
LINE
  8
0
 62
     0
 10
340.672
 20
306.2
 30
0.0
 11
340.679
 21
322.006
 31
0.0
  0
LINE
  8
0
 62
     0
 10
340.679
 20
322.006
 30
0.0
 11
340.686
 21
337.334
 31
0.0
  0
LINE
  8
0
 62
     0
 10
340.686
 20
337.334
 30
0.0
 11
340.692
 21
352.076
 31
0.0
  0
LINE
  8
0
 62
     0
 10
340.692
 20
352.076
 30
0.0
 11
340.697
 21
366.13
 31
0.0
  0
LINE
  8
0
 62
     0
 10
340.697
 20
366.13
 30
0.0
 11
340.701
 21
379.388
 31
0.0
  0
LINE
  8
0
 62
     0
 10
340.701
 20
379.388
 30
0.0
 11
340.705
 21
391.742
 31
0.0
  0
LINE
  8
0
 62
     0
 10
340.705
 20
391.742
 30
0.0
 11
340.706
 21
403.091
 31
0.0
  0
LINE
  8
0
 62
     0
 10
340.706
 20
403.091
 30
0.0
 11
340.706
 21
413.332
 31
0.0
  0
LINE
  8
0
 62
     0
 10
340.706
 20
413.332
 30
0.0
 11
340.705
 21
422.349
 31
0.0
  0
LINE
  8
0
 62
     0
 10
340.705
 20
422.349
 30
0.0
 11
340.702
 21
430.047
 31
0.0
  0
LINE
  8
0
 62
     0
 10
340.702
 20
430.047
 30
0.0
 11
340.697
 21
436.316
 31
0.0
  0
LINE
  8
0
 62
     0
 10
340.697
 20
436.316
 30
0.0
 11
340.689
 21
441.046
 31
0.0
  0
LINE
  8
0
 62
     0
 10
340.689
 20
441.046
 30
0.0
 11
340.681
 21
444.14
 31
0.0
  0
LINE
  8
0
 62
     0
 10
340.681
 20
444.14
 30
0.0
 11
340.68
 21
445.153
 31
0.0
  0
LINE
  8
0
 62
     0
 10
340.68
 20
445.153
 30
0.0
 11
340.672
 21
445.488
 31
0.0
  0
LINE
  8
0
 62
     0
 10
340.672
 20
445.488
 30
0.0
 11
340.661
 21
446.303
 31
0.0
  0
LINE
  8
0
 62
     0
 10
340.661
 20
446.303
 30
0.0
 11
340.216
 21
448.747
 31
0.0
  0
LINE
  8
0
 62
     0
 10
340.216
 20
448.747
 30
0.0
 11
339.094
 21
451.312
 31
0.0
  0
LINE
  8
0
 62
     0
 10
339.094
 20
451.312
 30
0.0
 11
337.531
 21
453.263
 31
0.0
  0
LINE
  8
0
 62
     0
 10
337.531
 20
453.263
 30
0.0
 11
335.749
 21
454.678
 31
0.0
  0
LINE
  8
0
 62
     0
 10
335.749
 20
454.678
 30
0.0
 11
333.974
 21
455.641
 31
0.0
  0
LINE
  8
0
 62
     0
 10
333.974
 20
455.641
 30
0.0
 11
332.428
 21
456.23
 31
0.0
  0
LINE
  8
0
 62
     0
 10
332.428
 20
456.23
 30
0.0
 11
331.337
 21
456.523
 31
0.0
  0
LINE
  8
0
 62
     0
 10
331.337
 20
456.523
 30
0.0
 11
330.924
 21
456.6
 31
0.0
  0
LINE
  8
0
 62
     0
 10
330.924
 20
456.6
 30
0.0
 11
330.924
 21
456.6
 31
0.0
  0
LINE
  8
0
 62
     0
 10
330.924
 20
456.6
 30
0.0
 11
330.924
 21
456.6
 31
0.0
  0
LINE
  8
0
 62
     0
 10
330.924
 20
456.6
 30
0.0
 11
330.065
 21
456.784
 31
0.0
  0
LINE
  8
0
 62
     0
 10
330.065
 20
456.784
 30
0.0
 11
327.631
 21
457.285
 31
0.0
  0
LINE
  8
0
 62
     0
 10
327.631
 20
457.285
 30
0.0
 11
323.831
 21
458.036
 31
0.0
  0
LINE
  8
0
 62
     0
 10
323.831
 20
458.036
 30
0.0
 11
318.875
 21
458.971
 31
0.0
  0
LINE
  8
0
 62
     0
 10
318.875
 20
458.971
 30
0.0
 11
312.972
 21
460.022
 31
0.0
  0
LINE
  8
0
 62
     0
 10
312.972
 20
460.022
 30
0.0
 11
306.332
 21
461.126
 31
0.0
  0
LINE
  8
0
 62
     0
 10
306.332
 20
461.126
 30
0.0
 11
299.165
 21
462.213
 31
0.0
  0
LINE
  8
0
 62
     0
 10
299.165
 20
462.213
 30
0.0
 11
291.68
 21
463.215
 31
0.0
  0
LINE
  8
0
 62
     0
 10
291.68
 20
463.215
 30
0.0
 11
284.088
 21
464.065
 31
0.0
  0
LINE
  8
0
 62
     0
 10
284.088
 20
464.065
 30
0.0
 11
276.597
 21
464.7
 31
0.0
  0
LINE
  8
0
 62
     0
 10
276.597
 20
464.7
 30
0.0
 11
269.419
 21
465.049
 31
0.0
  0
LINE
  8
0
 62
     0
 10
269.419
 20
465.049
 30
0.0
 11
262.763
 21
465.046
 31
0.0
  0
LINE
  8
0
 62
     0
 10
262.763
 20
465.046
 30
0.0
 11
256.837
 21
464.626
 31
0.0
  0
LINE
  8
0
 62
     0
 10
256.837
 20
464.626
 30
0.0
 11
251.852
 21
463.716
 31
0.0
  0
LINE
  8
0
 62
     0
 10
251.852
 20
463.716
 30
0.0
 11
248.018
 21
462.259
 31
0.0
  0
LINE
  8
0
 62
     0
 10
248.018
 20
462.259
 30
0.0
 11
246
 21
460.812
 31
0.0
  0
LINE
  8
0
 62
     0
 10
246
 20
460.812
 30
0.0
 11
245.546
 21
460.177
 31
0.0
  0
LINE
  8
0
 62
     0
 10
245.546
 20
460.177
 30
0.0
 11
245.238
 21
459.747
 31
0.0
  0
LINE
  8
0
 62
     0
 10
245.238
 20
459.747
 30
0.0
 11
244.452
 21
458.364
 31
0.0
  0
LINE
  8
0
 62
     0
 10
244.452
 20
458.364
 30
0.0
 11
243.509
 21
456.209
 31
0.0
  0
LINE
  8
0
 62
     0
 10
243.509
 20
456.209
 30
0.0
 11
242.704
 21
453.722
 31
0.0
  0
LINE
  8
0
 62
     0
 10
242.704
 20
453.722
 30
0.0
 11
242.027
 21
450.917
 31
0.0
  0
LINE
  8
0
 62
     0
 10
242.027
 20
450.917
 30
0.0
 11
241.467
 21
447.802
 31
0.0
  0
LINE
  8
0
 62
     0
 10
241.467
 20
447.802
 30
0.0
 11
241.011
 21
444.394
 31
0.0
  0
LINE
  8
0
 62
     0
 10
241.011
 20
444.394
 30
0.0
 11
240.648
 21
440.694
 31
0.0
  0
LINE
  8
0
 62
     0
 10
240.648
 20
440.694
 30
0.0
 11
240.37
 21
436.721
 31
0.0
  0
LINE
  8
0
 62
     0
 10
240.37
 20
436.721
 30
0.0
 11
240.162
 21
432.481
 31
0.0
  0
LINE
  8
0
 62
     0
 10
240.162
 20
432.481
 30
0.0
 11
240.013
 21
427.986
 31
0.0
  0
LINE
  8
0
 62
     0
 10
240.013
 20
427.986
 30
0.0
 11
239.915
 21
423.245
 31
0.0
  0
LINE
  8
0
 62
     0
 10
239.915
 20
423.245
 30
0.0
 11
239.854
 21
418.275
 31
0.0
  0
LINE
  8
0
 62
     0
 10
239.854
 20
418.275
 30
0.0
 11
239.82
 21
413.082
 31
0.0
  0
LINE
  8
0
 62
     0
 10
239.82
 20
413.082
 30
0.0
 11
239.801
 21
407.674
 31
0.0
  0
LINE
  8
0
 62
     0
 10
239.801
 20
407.674
 30
0.0
 11
239.786
 21
402.068
 31
0.0
  0
LINE
  8
0
 62
     0
 10
239.786
 20
402.068
 30
0.0
 11
239.764
 21
396.272
 31
0.0
  0
LINE
  8
0
 62
     0
 10
239.764
 20
396.272
 30
0.0
 11
239.723
 21
390.292
 31
0.0
  0
LINE
  8
0
 62
     0
 10
239.723
 20
390.292
 30
0.0
 11
239.653
 21
384.15
 31
0.0
  0
LINE
  8
0
 62
     0
 10
239.653
 20
384.15
 30
0.0
 11
239.543
 21
377.846
 31
0.0
  0
LINE
  8
0
 62
     0
 10
239.543
 20
377.846
 30
0.0
 11
239.381
 21
371.394
 31
0.0
  0
LINE
  8
0
 62
     0
 10
239.381
 20
371.394
 30
0.0
 11
239.154
 21
364.807
 31
0.0
  0
LINE
  8
0
 62
     0
 10
239.154
 20
364.807
 30
0.0
 11
238.854
 21
358.094
 31
0.0
  0
LINE
  8
0
 62
     0
 10
238.854
 20
358.094
 30
0.0
 11
238.468
 21
351.269
 31
0.0
  0
LINE
  8
0
 62
     0
 10
238.468
 20
351.269
 30
0.0
 11
237.986
 21
344.337
 31
0.0
  0
LINE
  8
0
 62
     0
 10
237.986
 20
344.337
 30
0.0
 11
237.396
 21
337.312
 31
0.0
  0
LINE
  8
0
 62
     0
 10
237.396
 20
337.312
 30
0.0
 11
236.686
 21
330.204
 31
0.0
  0
LINE
  8
0
 62
     0
 10
236.686
 20
330.204
 30
0.0
 11
235.846
 21
323.024
 31
0.0
  0
LINE
  8
0
 62
     0
 10
235.846
 20
323.024
 30
0.0
 11
234.863
 21
315.784
 31
0.0
  0
LINE
  8
0
 62
     0
 10
234.863
 20
315.784
 30
0.0
 11
233.729
 21
308.493
 31
0.0
  0
LINE
  8
0
 62
     0
 10
233.729
 20
308.493
 30
0.0
 11
232.429
 21
301.163
 31
0.0
  0
LINE
  8
0
 62
     0
 10
232.429
 20
301.163
 30
0.0
 11
230.955
 21
293.805
 31
0.0
  0
LINE
  8
0
 62
     0
 10
230.955
 20
293.805
 30
0.0
 11
229.295
 21
286.427
 31
0.0
  0
LINE
  8
0
 62
     0
 10
229.295
 20
286.427
 30
0.0
 11
227.435
 21
279.042
 31
0.0
  0
LINE
  8
0
 62
     0
 10
227.435
 20
279.042
 30
0.0
 11
225.369
 21
271.661
 31
0.0
  0
LINE
  8
0
 62
     0
 10
225.369
 20
271.661
 30
0.0
 11
223.081
 21
264.294
 31
0.0
  0
LINE
  8
0
 62
     0
 10
223.081
 20
264.294
 30
0.0
 11
220.562
 21
256.952
 31
0.0
  0
LINE
  8
0
 62
     0
 10
220.562
 20
256.952
 30
0.0
 11
217.8
 21
249.645
 31
0.0
  0
LINE
  8
0
 62
     0
 10
217.8
 20
249.645
 30
0.0
 11
214.784
 21
242.384
 31
0.0
  0
LINE
  8
0
 62
     0
 10
214.784
 20
242.384
 30
0.0
 11
211.504
 21
235.183
 31
0.0
  0
LINE
  8
0
 62
     0
 10
211.504
 20
235.183
 30
0.0
 11
207.947
 21
228.048
 31
0.0
  0
LINE
  8
0
 62
     0
 10
207.947
 20
228.048
 30
0.0
 11
204.103
 21
220.992
 31
0.0
  0
LINE
  8
0
 62
     0
 10
204.103
 20
220.992
 30
0.0
 11
199.96
 21
214.025
 31
0.0
  0
LINE
  8
0
 62
     0
 10
199.96
 20
214.025
 30
0.0
 11
195.506
 21
207.159
 31
0.0
  0
LINE
  8
0
 62
     0
 10
195.506
 20
207.159
 30
0.0
 11
190.733
 21
200.404
 31
0.0
  0
LINE
  8
0
 62
     0
 10
190.733
 20
200.404
 30
0.0
 11
185.626
 21
193.77
 31
0.0
  0
LINE
  8
0
 62
     0
 10
185.626
 20
193.77
 30
0.0
 11
180.176
 21
187.269
 31
0.0
  0
LINE
  8
0
 62
     0
 10
180.176
 20
187.269
 30
0.0
 11
174.371
 21
180.912
 31
0.0
  0
LINE
  8
0
 62
     0
 10
174.371
 20
180.912
 30
0.0
 11
168.201
 21
174.708
 31
0.0
  0
LINE
  8
0
 62
     0
 10
168.201
 20
174.708
 30
0.0
 11
161.652
 21
168.669
 31
0.0
  0
LINE
  8
0
 62
     0
 10
161.652
 20
168.669
 30
0.0
 11
154.716
 21
162.806
 31
0.0
  0
LINE
  8
0
 62
     0
 10
154.716
 20
162.806
 30
0.0
 11
147.381
 21
157.128
 31
0.0
  0
LINE
  8
0
 62
     0
 10
147.381
 20
157.128
 30
0.0
 11
139.634
 21
151.649
 31
0.0
  0
LINE
  8
0
 62
     0
 10
139.634
 20
151.649
 30
0.0
 11
131.465
 21
146.377
 31
0.0
  0
LINE
  8
0
 62
     0
 10
131.465
 20
146.377
 30
0.0
 11
122.863
 21
141.323
 31
0.0
  0
LINE
  8
0
 62
     0
 10
122.863
 20
141.323
 30
0.0
 11
113.816
 21
136.499
 31
0.0
  0
LINE
  8
0
 62
     0
 10
113.816
 20
136.499
 30
0.0
 11
104.313
 21
131.916
 31
0.0
  0
LINE
  8
0
 62
     0
 10
104.313
 20
131.916
 30
0.0
 11
94.3448
 21
127.581
 31
0.0
  0
LINE
  8
0
 62
     0
 10
94.3448
 20
127.581
 30
0.0
 11
83.8976
 21
123.509
 31
0.0
  0
LINE
  8
0
 62
     0
 10
83.8976
 20
123.509
 30
0.0
 11
72.9601
 21
119.71
 31
0.0
  0
LINE
  8
0
 62
     0
 10
72.9601
 20
119.71
 30
0.0
 11
61.5227
 21
116.195
 31
0.0
  0
LINE
  8
0
 62
     0
 10
61.5227
 20
116.195
 30
0.0
 11
49.5734
 21
112.973
 31
0.0
  0
LINE
  8
0
 62
     0
 10
49.5734
 20
112.973
 30
0.0
 11
37.1023
 21
110.054
 31
0.0
  0
LINE
  8
0
 62
     0
 10
37.1023
 20
110.054
 30
0.0
 11
24.0964
 21
107.453
 31
0.0
  0
LINE
  8
0
 62
     0
 10
24.0964
 20
107.453
 30
0.0
 11
13.9402
 21
105.694
 31
0.0
  0
LINE
  8
0
 62
     0
 10
13.9402
 20
105.694
 30
0.0
 11
10.5447
 21
105.176
 31
0.0
  0
LINE
  8
0
 62
     0
 10
10.5447
 20
105.176
 30
0.0
 11
9.73032
 21
105.081
 31
0.0
  0
LINE
  8
0
 62
     0
 10
9.73032
 20
105.081
 30
0.0
 11
7.31326
 21
104.601
 31
0.0
  0
LINE
  8
0
 62
     0
 10
7.31326
 20
104.601
 30
0.0
 11
4.85482
 21
103.719
 31
0.0
  0
LINE
  8
0
 62
     0
 10
4.85482
 20
103.719
 30
0.0
 11
3.06614
 21
102.497
 31
0.0
  0
LINE
  8
0
 62
     0
 10
3.06614
 20
102.497
 30
0.0
 11
1.84519
 21
100.903
 31
0.0
  0
LINE
  8
0
 62
     0
 10
1.84519
 20
100.903
 30
0.0
 11
1.08452
 21
98.9058
 31
0.0
  0
LINE
  8
0
 62
     0
 10
1.08452
 20
98.9058
 30
0.0
 11
0.684886
 21
96.4738
 31
0.0
  0
LINE
  8
0
 62
     0
 10
0.684886
 20
96.4738
 30
0.0
 11
0.538812
 21
93.5743
 31
0.0
  0
LINE
  8
0
 62
     0
 10
0.538812
 20
93.5743
 30
0.0
 11
0.534677
 21
91.0262
 31
0.0
  0
LINE
  8
0
 62
     0
 10
0.534677
 20
91.0262
 30
0.0
 11
0.545705
 21
90.176
 31
0.0
  0
ENDSEC
  0
EOF
